/* XPM */
static char *ZWFzdF90ZXN0X3Jlc2l6ZQ__[] = {
/* columns rows colors chars-per-pixel */
"64 64 64 1 ",
"  c black",
". c #040404",
"X c gray3",
"o c #0C0C0C",
"O c #101010",
"+ c gray8",
"@ c gray10",
"# c gray12",
"$ c gray13",
"% c gray14",
"& c gray17",
"* c gray18",
"= c gray19",
"- c #353535",
"; c gray22",
": c #3F3F3F",
"> c #434343",
", c gray28",
"< c #484848",
"1 c gray31",
"2 c #515151",
"3 c gray33",
"4 c gray35",
"5 c #5F5F5F",
"6 c #626262",
"7 c gray40",
"8 c #6C6C6C",
"9 c #6F6F6F",
"0 c gray45",
"q c #777777",
"w c gray47",
"e c #7C7C7C",
"r c #808080",
"t c gray53",
"y c #8B8B8B",
"u c gray55",
"i c #929292",
"p c gray59",
"a c #9B9B9B",
"s c #9F9F9F",
"d c #A0A0A0",
"f c #A7A7A7",
"g c #A9A9A9",
"h c #AFAFAF",
"j c gray69",
"k c #B7B7B7",
"l c #B9B9B9",
"z c gray75",
"x c #C1C1C1",
"c c gray78",
"v c #CACACA",
"b c gray81",
"n c LightGray",
"m c #D5D5D5",
"M c gray86",
"N c #DFDFDF",
"B c gray89",
"V c #E7E7E7",
"C c gray92",
"Z c #ECECEC",
"A c #F3F3F3",
"S c gray97",
"D c #FBFBFB",
"F c white",
/* pixels */
"FFFFFFFFFFFFFFFFFFFFFFFFFFFFFFFFFFFFFFFFFFFFFFFFFFFFFFFFFFFFFFFF",
"FFFFFFFFFFFFFFFFFFFFFFFFFFFFFFFFFFFFFFFFFFFFFFFFFFFFFFFFFFFFFFFF",
"FFFFFFFFFFFFFFFFFFFFFFFFFFFFFFFFFFFFFFFFFFFFFFFFFFFFFFFFFFFFFFFF",
"FFFFFFFFFFFFFFFFFFFFFFFFFFFFFFFFFFFFFFFFFFFFFFFFFFFFFFFFFFFFFFFF",
"FFFFFFFFFFFFFFFFFFFFFFFFFFFFFFFFFFFFFFFFFFFFFFFFFFFFFFFFFFFFFFFF",
"FFFFFFFFFFFFFFFFFFFFFFFFFFFFFFFFFFFFFFFFFFFFFFFFFFFFFFFFFFFFFFFF",
"FFFFFFFFFFFFFFFFFFFFFFFFFFFFFFFFFFFFFFFFFFFFFFFFFFFFFFFFFFFFFFFF",
"FFFFFFFFFFFFFFFFFFFFFFFFFFFFFFFFFFFFFFFFFFFFFFFFFFFFFFFFFFFFFFFF",
"FFFFFFFFFFFFFFFFFFFFFFFFFFFFFFFFFFFFFFFFFFFFFFFFFFFFFFFFFFFFFFFF",
"FFFFFFFFFFFFFFFFFFFFFFFFFFFFFFFFFFFFFFFFFFFFFFFFFFFFFFFFFFFFFFFF",
"FFFFFFFFFFFFFFFFFFFFFFFFFFFFFFFFFFFFFFFFFFFFFFFFFFFFFFFFFFFFFFFF",
"FFFFFFFFFFFFFFFFFFFFFFFFFFFFFFFFFFFFFFFFCcDFFFFFFFFFFFFFFFFFFFFF",
"FFFFFFFFFFFFFFFFFFFFFFCafFFFFFFFFFFFFFFzO ,CFFFFFFFFFFFFFFFFFFFF",
"FFFFFFFFFFFFFVhyrrrr0;   FFFFFFFFFFFFFF* # 0FFFFFFFFFFFFFFFFFFFF",
"FFFFFFFFFFNt;         X,gFFFFFFFFFFFFFM +CO.MFFFFFFFFFFFFFFFFFFF",
"FFFFFFFFV3.  o,9rrrrtkAFFFFFFFFFFFFFFFt 2Fe 9FFFFFFFFFFFFFFFFFFF",
"FFFFFFFF1 X5fSFFFFFFFFFFFFFFFFFFFFFFFF, sFCooCFFFFFFFFFFFFFFFFFF",
"FFFFFFFS..BFFFFFFFFFFFFFFFFFFFFFFFFFFFo mFF2 iFFFFFFFFFFFFFFFFFF",
"FFFFFFFn &FFFFFFFFFFFFFFFFFFFFFFFFFFFN +FFFk -FFFFFFFFFFFFFFFFFF",
"FFFFFFFz :FFFFFFFFFFFFFFFFFFFFFFFFFFFh 2FFFD+ mFFFFFFFFFFFFFFFFF",
"FFFFFFFh 1FFFFFFFFFFFFFFFFFFFFFFFFFFFe wFFFF8 eFFFFFFFFFFFFFFFFF",
"FFFFFFFs 5FFFFFFFFFFFFFFFFFFFFFFFFFFF3 dFFFFl >FFFFFFFFFFFFFFFFF",
"FFFFFFFy 9FFFFFFFFFFFFFFFFFFFFFFFFFFF% vFFFFSX CFFFFFFFFFFFFFFFF",
"FFFFFFFr rFFFFFFFFFFFFFFFFFFFFFFFFFFD. AFFFFF2 hFFFFFFFFFFFFFFFF",
"FFFFFFF5 aFFFFFFFFFFFFFFFFFFFFFFFFFFb $FFFFFFy 9FFFFFFFFFFFFFFFF",
"FFFFFFF> kFFFFFFFFFFFFFFFFFFFFFFFFFFh ,FFFFFFc &FFFFFFFFFFFFFFFF",
"FFFFFFF# MFFFFFFFFFFFFFFFFFFFFFFFFFFp 6FFFFFFSX BFFFFFFFFFFFFFFF",
"FFFFFFF. DFFFFFFFFFFFFFFFFFFFFFFFFFFq rFFFFFFF: sFFFFFFFFFFFFFFF",
"FFFFFFS .FFFFFFFFFFFFFFFFFFFFFFFFFFF3 jFFFFFFFr 8FFFFFFFFFFFFFFF",
"FFFFFFN #FFFFFFFFFFFFFFFFFFFFFFFFFFF; MFFFFFFFz -FFFFFFFFFFFFFFF",
"FFFFFFn $gzmSFFFFFFFFFFFFFFFFFFFFFFF@ BSxt2=#$$ .yFFFFFFFFFFFFFF",
"FFFFFFz      $5plbDFFFFFFFFFFFFFFFFF. >X         #FFFFFFFFFFFFFF",
"FFFFFFs -2:$      %FFFFFFFFFFFFFFFFV    &7svNNM1 iFFFFFFFFFFFFFF",
"FFFFFFs 6FFFDnf6:#*FFFFFFFFFFFFFFFFx *xZFFFFFFFa 1FFFFFFFFFFFFFF",
"FFFFFFs 5FFFFFFFFFFFFFFFFFFFFFFFFFFd 3FFFFFFFFFb oDFFFFFFFFFFFFF",
"FFFFFFs 5FFFFFFFFFFFFFFFFFFFFFFFFFFr tFFFFFFFFFF# bFFFFFFFFFFFFF",
"FFFFFFh 1FFFFFFFFFFFFFFFFFFFFFFFFFF5 dFFFFFFFFFF5 aFFFFFFFFFFFFF",
"FFFFFFz :FFFFFFFFFFFFFFFFFFFFFFFFFF, jFFFFFFFFFFs <FFFFFFFFFFFFF",
"FFFFFFb *FFFFFFFFFFFFFFFFFFFFFFFFFF& bFFFFFFFFFFM ODFFFFFFFFFFFF",
"FFFFFFV +FFFFFFFFFFFFFFFFFFFFFFFFFFX ZFFFFFFFFFFF& xFFFFFFFFFFFF",
"FFFFFFFX SFFFFFFFFFFFFFFFFFFFFFFFFV +FFFFFFFFFFFF5 eFFFFFFFFFFFF",
"FFFFFFF> eFFFFFFFFFFFFFFFFFFFFFFFFx -FFFFFFFFFFFFf -FFFFFFFFFFFF",
"FFFFFFFk  ;tkVFFFFFFFFFFFFFFFFFFFFs 3FFFFFFFFFFFFSX.AFFFFFFFFFFF",
"FFFFFFFFs@    +,wlAFFFFFFFFFFFFFFFe qFFFFFFFFFFFFF, kFFFFFFFFFFF",
"FFFFFFFFFSf9:O     >tnFFFFFFFFFFFF2 hFFFFFFFFFFFFFq 0FFFFFFFFFFF",
"FFFFFFFFFFFFFFBhq;.   O2uxFFFFFFFDO VFFFFFFFFFFFFFk ,FFFFFFFFFFF",
"FFFFFFFFFFFFFFFFFFAg7+    $NFFFFFz =FFFFFFFFFFFFFFZ.@FFFFFFFFFFF",
"FFFFFFFFFFFFFFFFFFFFFFMf9%.NFFFFF9 qFFFFFFFFFFFFFFFfpFFFFFFFFFFF",
"FFFFFFFFFFFFFFFFFFFFFFFFFFAFFFFFF* zFFFFFFFFFFFFFFFFFFFFFFFFFFFF",
"FFFFFFFFFFFFFFFFFFFFFFFFFFFFFFFFFjpFFFFFFFFFFFFFFFFFFFFFFFFFFFFF",
"FFFFFFFFFFFFFFFFFFFFFFFFFFFFFFFFFFFFFFFFFFFFFFFFFFFFFFFFFFFFFFFF",
"FFFFFFFFFFFFFFFFFFFFFFFFFFFFFFFFFFFFFFFFFFFFFFFFFFFFFFFFFFFFFFFF",
"FFFFFFFFFFFFFFFFFFFFFFFFFFFFFFFFFFFFFFFFFFFFFFFFFFFFFFFFFFFFFFFF",
"FFFFFFFFFFFFjvFFFFFFFVaSFFFFFFFFFFFFFFFFFFFFFFFFFFFFFFFFFFFFFFFF",
"FFFFFFFFFFFB +FFFFFFF6 pFFFFFFFFFFFFFFFFFFFFFFFFFFFFFFFFFFFFFFFF",
"FFFFFFFFFFFFrpFFFFFFFn5VFFFFFFFFFFFFFFFFFFFFFFFFFFFFFFFFFFFFFFFF",
"FFFFFFFFFFBVFFFFFFFFFFFFFFFFFFFFFFFFFFFFFFFFFFFFFFFFFFFFFFFFFFFF",
"FFFFFFFFFFOXwAFFFFFFFFFFFFFFFFFFFFFFFFFFFFFFFFFFFFFFFFFFFFFFFFFF",
"FFFFFFFFFFe  $vFFFFFFFFFFFFFFFFFFFFFFFFFFFFFFFFFFFFFFFFFFFFFFFFF",
"FFFFFFFFFFFv%  ;rlzbtyFFFFFFFFFFFFFFFFFFFFFFFFFFFFFFFFFFFFFFFFFF",
"FFFFFFFFFFFFSyo       FFFFFFFFFFFFFFFFFFFFFFFFFFFFFFFFFFFFFFFFFF",
"FFFFFFFFFFFFFFAke4>,9vFFFFFFFFFFFFFFFFFFFFFFFFFFFFFFFFFFFFFFFFFF",
"FFFFFFFFFFFFFFFFFFFFFFFFFFFFFFFFFFFFFFFFFFFFFFFFFFFFFFFFFFFFFFFF",
"FFFFFFFFFFFFFFFFFFFFFFFFFFFFFFFFFFFFFFFFFFFFFFFFFFFFFFFFFFFFFFFF"
};
