/* XPM */
static char *d6f1203ad785415df0e1e16b92c3090aha29U8T6tqUbqLkC[] = {
/* columns rows colors chars-per-pixel */
"64 64 93 2 ",
"   c #050505",
".  c #0D0D0D",
"X  c #141314",
"o  c #171518",
"O  c #19161A",
"+  c #1B191D",
"@  c #1D1720",
"#  c #1E1B21",
"$  c #221D24",
"%  c #261E29",
"&  c #252125",
"*  c #272128",
"=  c #2B242C",
"-  c #2D2B2D",
";  c #302B2F",
":  c #2F2630",
">  c #312731",
",  c #342B33",
"<  c #312D30",
"1  c #312F30",
"2  c #322E31",
"3  c #342C33",
"4  c #352A34",
"5  c #362A35",
"6  c #362836",
"7  c #352C34",
"8  c #362F34",
"9  c #392B37",
"0  c #392E36",
"q  c #3A2B39",
"w  c #392D38",
"e  c #3A2D38",
"r  c #3B2C39",
"t  c #3C2D39",
"y  c #3C2D3B",
"u  c #3E2D3E",
"i  c #313131",
"p  c #323232",
"a  c gray20",
"s  c #363034",
"d  c #343334",
"f  c gray21",
"g  c #373737",
"h  c #393236",
"j  c #3B3039",
"k  c #3F333B",
"l  c #3D3539",
"z  c #3C3639",
"x  c gray23",
"c  c #3C3C3C",
"v  c #3D3C3C",
"b  c #40323C",
"n  c #42303F",
"m  c #41343C",
"M  c #42343D",
"N  c #41373C",
"B  c #41353E",
"V  c #43353E",
"C  c #45373E",
"Z  c #42393D",
"A  c #43393E",
"S  c #433143",
"D  c #453441",
"F  c #453442",
"G  c #483642",
"H  c #4A3643",
"J  c #473842",
"K  c #413F40",
"L  c #4B3942",
"P  c #4B3B43",
"I  c #513F45",
"U  c #513C47",
"Y  c #523D46",
"T  c #543D48",
"R  c #4B4142",
"E  c #4B4143",
"W  c #5C4247",
"Q  c #66444B",
"!  c #6B454E",
"~  c #77474F",
"^  c #7B4749",
"/  c #7B474A",
"(  c #7E484B",
")  c #624250",
"_  c #744857",
"`  c #7E4A56",
"'  c #874B51",
"]  c #8A4F58",
"[  c #895465",
"{  c #8D5C77",
"}  c #8F557A",
"|  c #856A78",
" . c #A9A9A9",
/* pixels */
" .B @ = = - %     . m m ; X . . ' . . X O $ .     X - > * O & & A = - q q % % $ O $ & + + X . + ( O O . . X     . X C ` - o . + ",
"O u % $ # - C X . . X + & $ # # O > O X X O - . . . X O b & $ & - ; > - - % s % + X X . * 3 . O + D S . o = x X X   . * + A     ",
"X $ @ @ + 1 o X X X X $ 0 & % x O , $ - = > O O X . . X $ - ; 1 . O $ % % 6 $ & O X O . o & . $ $ > 6 $ $ 3 + O X + o O $ - . X ",
": = 6 = h & . . X X X h t $ & & % $ > b q $ O $ X . . $ $ * + # + @ , $ = = O + . X # O + o - - - u D = t - + X . o # o $ $ $ - ",
"q 6 6 % + + X X X X . ; + $ % - ; - @ O & ; & + o X X p & = # % . X + = o o $ X . X + O X X . o X % 0 , $ = #     . X O O $ % u ",
"U S , f # O O O O 0 X X + + % > - k $ ; ; O + + = ; + X + C G 0   O + * 0 > $ + . > X O & $ . o . > 8 f % - + O X C X @ O * B T ",
") r $ $ O   O & X # r + O o 8 $ s t # # # X O $ # O 3 O o $ m 0 + & O $ o X = - X X & O X f s 8 u 0 = , - X o X O o @ # X X U L ",
"{ 6 + $ .   X . - 3 8 $ # > $ = C m = ; ; # + # , O . X $ X + B ! B * g o X o X ; O = O O X + # r % + f u + & O k O - @ . . + k ",
"X o q r = X     X O @ $ $ $ $ . X # h 0 = O + + P % X . o o & O + - B ; o + & + C & # % - o = . X + 6 > - + O $ ] o o %   X o o ",
"X X X $ $ k * X . O + + + @ s O X o o = 3 3 & # + > + . o $ g . X = , 3 6 b & $ # & $ + O O - . . . . + - 0 + = 3 & $ %     - O ",
"# X . o - = > c + + O $ # 3 > * ; + X X + > = A $ > $ # h + & $ . X O , 6 B s k o $ + + & P r * o - X O $ % $ A * & o # O X O & ",
"& X o o $ * 3 - = > % $ @ + = - O = * + $ $ # $ # $ b ; o X o X .   X O = t h $ * + $ + $ & $ & % o O O @ + + $ - = : $ > - . O ",
". o X O o + @ - - $ * + X X - = $ % o + # & $ = + t h + O X   . O . . + # ; - $ r = $ O . . X $ = + O O O + + $ > - = X X g   X ",
". B X + - X @ = 8 3 = & o + o & , C % # % O $ = O 6 # 3 $ X . . o 3 + X X $ B b : S & s + + X + # B + & + + # h > > > X @ > O o ",
"X O & 8 + o 3 @ = > + . X O O X X o > $ # O - . # - O + , % . X o + ; + X & ; $ 6 6 O + - X X O $ o ; r O . = $ 8 u $ . - + & + ",
"b % $ = - 3 , & h y + . . + - X - O $ - # & + + g s X = r % + o k & + X O o O # k $ = O - # ; & s + B r + X O & C r $ . O $ O + ",
"( $ 6 6 $ & z & X O j + X & 6 & W * : u $ # $ o X & F t 0 3 + - ' $ O + $ + + X X X x 6 - + + = Q X o & - + = . X + s X X & + & ",
"& - * j X X c - O O & = o = O & - > u - - $ s o . X & 6 & b $ % + > = o o & f o X + o $ - s X & - o X & + & - X + + X X + j > - ",
".     + & + . . & X X O % & @ i . . * = & - $ + . . O & % > 8 B $ * $ + + Z + + o $ X X o % O p + $ + $ O 3 o O & & o & = 0 > k ",
"= X . X + + 3 o X X + = $ 3 3 o . # + * 6 3 O & . . - 8 = $ # - * = F $ $ & 3 = O O $ o o o X o $ $ $ $ = & X X o o X o 6 0 - & ",
"t B $ . . O c X . X X X X - 3 k j - # # # $ # = X . . & # + & , $ F J $ O O ; s & O O + o X O o $ * $ @ + + X . X $ + + X + $ 0 ",
": 6 & ; & + O + o 0 X X O o + r J A j - & # + + * $ X X o $ , $ . r > f O . & k f A O @ + + & = $ - & 8 X X o O + r o p X X + * ",
"= 9 3 & ; - o O X O + 3 + . X X h k & O + O o X X O % + O X 3 . . & O + . . X 0 & O $ + X O 1 + = = X X - X o O o O = 6 - X 3 + ",
"h t 3 - ; & O O 0 o % & + + X - - B & O & O + O b + + + + O + = U h O * X . X + B + - + + O 6 $ u $ + O * O O O 0 + o - 0 $ = > ",
". O , , - $ + # A + # % # X > & X % T U $ + = h | $ O + + # & X . + h j >   . # [ > + % & 6 > + X + f > & 6 O $ c X . + * + & X ",
"X . X X $ 8 6 r ; - % 9 % = A $ O O $ > $ - O G A > $ O O $ z X X X X + + h + $ $ = $ % O % p + + O X + + , & % $ # # X X X a X ",
"X + X o % $ r ` - % % % + 8 # O + . X O + .   R 6 $ % O O ; o X . . . o + = & A O = 0 0 z B = & ; X X + s - % 0 X o @ $ - % X o ",
"# o + o . X - = 9 > $ O 8 & - O O O X + $ . . k D S > % , - o X X X + o $ + + = $ r D , = * 3 = = * o $ L > - u + + : $ + 8 + + ",
"B # + O o X 8 $ r t - + O , x + O + + O O X + t P P > $ $ $ + X X X X O O # = $ + 6 - X + + X + = f # - - - 6 D r + 3 O o g o - ",
"& t + # + . - . + t 6 s = + o X & R O $ & X h 0 H H , f $ + o o X F X O O X & . O L 3 p + - & . o k o k % O % b v k * = + o X 3 ",
"O O + 3 + X . . @ $ + $ - . o + . X % b = + h 9 U u + $ - X X o X X O O X X h . + W + .   . O + o . X & O % b - G B - * - . . o ",
"u + $ $ & f O - h = + = . . o # - X X X o &   o ~ 6 , h 0 O X + } - O $ * @ + . # = ; & o o . o Z . . + > B b % A b s - 0 o O % ",
"x = - 6 0 & & $ o # & + + X . + / + o . . X     . . L _ - O . O  .B @ : % = %       k v 6 . . X ^ X . X O + .     . - > & O $ & ",
"% : , > : % g & + X X . & 3 X O + S S . o = A X X   . = $ b     O u % @ # : P X . X X + & & + $ + = o X X O - X . . X + b = $ * ",
". O $ % % 6 & * X X O . X & . & $ , 6 $ & 3 # X X O X o $ = . X X $ @ @ + 3 + X X X . $ h % % k O 6 $ - = ; + O X . . X # - 3 - ",
"+ $ - * = = O + X o # o + + = = = k k = r = # X . O $ O $ $ $ - - = 6 = r & . . o X X s h $ $ & % $ : k r $ O @ X . . & $ = O & ",
". X $ = o O @ o . X o o X X . X X % q , & = +     . X O O % - 0 q 0 3 & + + X X X X . p + $ % - 6 - + O & - = O X X o 3 % , + % ",
"  O O * 8 3 $ O X 3 X o # & X X . > , z & 3 + o X C X + O & u T U B - f + + o + + r X X @ + % : : k & - - O + O - ; + X O B C 8 ",
"+ $ O & X O % - X X * o X 8 f 8 u q = - - X O X O o $ $ . o E L Q q & & O   o # . $ r + o + s & q 0 # & & X O $ + O p X o % B 0 ",
"Q k & f O X O X - + = O O X + + k $ $ a t + & O b + - + . . + B { q + # X   . X - 8 6 % + > # = B k * ; - + + $ 0 O . X $ X + b ",
"+ , B : + + & + A $ + % - X & . X o 6 3 - + o $ ] O O % . . O X X O 0 t - .     X o @ $ $ $ $ . X # 3 t - O + + L * . . + O % O ",
"X = , , , k & $ + = $ + O O p X . . . # - , + = - % $ %     - o X X X + $ k = . . O @ @ + + i o X o O * 6 8 $ $ O - + . O $ f . ",
". . # , 9 b 9 z # # + + * L r * + - X o @ & $ A % % o @ + . + & $ X X O - : > x @ O + $ $ 3 - & ; O o X + - > j $ = % $ j + $ $ ",
".   X + = k 3 & & + % O % $ # * $ + o X @ $ o % > % > $ - : . + & X X O @ % 8 - = : % $ @ # = - O - & @ $ $ # $ $ $ u - o X X X ",
"X . . + # > - % 9 = $ o . . X $ = + O O O + + & , = % X X 8 . . X X X o + + @ - = $ * + X X - * # & # O + & - % + j h + O X   . ",
"o s + X . & b b 3 r % s $ + X + $ m + * @ + + 8 - 6 : X # - O O . k X + - X + = r > * & o + + & ; C $ $ * + $ = O 8 # p # O . . ",
"O + 3 + X & ; $ 6 9 o + - X o o + + ; 6 o X - $ r r $ X - + = O X + % 8 + X p # - : + X X O O X X O > % + O - . # ; O # , % X X ",
"j & + o o o o # k + - + & $ 3 & g O F q O X O % A k + . + # O + k * $ & : 6 6 & j u + . . o - X > O + - # $ + o k 8 X * t & O O ",
"' $ O $ # + + X X X c ; ; + + - Q X O = = + - . X + 0 X X % + & ( $ 8 8 & & k + X o k @ X $ p & Q $ > b $ # $ O o & C t 0 , # = ",
"+ - % O + & g o X + O # ; 3 X + - X X & O % - X + # X X + 0 : = * = * k X X K = X o $ - O - + & - - b = - $ s O . o & 6 & m $ $ ",
"$ % $ O + m + O + # X O + % O h + $ + + + - X + & & X & - 6 6 v X     + + + X . % O X O % & # - . . $ % & - # + . . O $ $ > 3 A ",
"% = B % $ & 8 = o O # O X o X o $ % % $ = $ X X X O O O 8 h = $ * X . X + # 3 X . o @ & $ , 3 X . $ # % 3 3 # # X . - - - $ $ - ",
"$ B V $ + o ; h = O O O o X O + & $ $ # + + X . X $ o + X O $ q k S $ . . + x X . X X X X , , k b > $ + + & # - X . . $ @ + $ 6 ",
". r ; f O . # l 0 m O $ + O $ - # = $ a X X o O O h + s X X @ = - 6 % - $ + o + O 0 X X o o + k C b 0 , $ $ + O $ $ X o O $ 3 $ ",
". % O $ . . X h & o # O o o ; + - > X O = X o o X O = 6 - X 3 O = 9 - & 3 - o O o o O 3 O . X o 0 b $ O + o O O O O $ + o o s . ",
"T 9 O & o . . # Z # - # + o , $ z # + O * + O O 0 + o - k $ = - h 9 , - ; & O o 0 + % $ # + X = > C $ O & o O O b # O $ O o o - ",
". o 0 r - . . + [ > + % % , > + X + g > & 8 o * c o . # & + & X X X , ; = $ # # A + $ & # X > $ X = T P % O - t | $ O $ @ @ $ X ",
"X X X $ O 9 + $ & = $ % O % f + + O X # + 6 & * $ + @ X X X 8 X X . X X # 8 6 b : = % 0 % - v $ O X & - & = o D B = % O O $ k X ",
"X . . X $ % % v o * 9 t k A = $ - X X O s = = s X + O $ - & o X o O X O & $ r ' - * % % # , + O + X X O + .   R 9 $ % O O - + X ",
"X X o O $ + + - $ t G > = & ; - = & O % L - = r + + > % O 8 + + # O + O . o - & 6 > $ o 9 & - o X X O O & . . r C C > $ 9 = o X ",
"X . X O O $ = $ + , - X + O X o = s # - = - r F u + - + o g o - D + @ + X X 3 $ t u - $ + ; z + + + O O O X + k H U - $ $ $ O X ",
"X C X O X O $ . O L h f + 3 & . o z o x $ + * k k k = * + X X 8 $ k + # + X - . + r > f * O O X & U o - % X h q G G , f $ O O X ",
"X X O O X X 0 . + U + .   . O + X . X & o $ k > P F = & - . . o O + + s O X . . # $ + + - o X O . X % b - O h 6 U r + & - X X O ",
"} 3 O $ % $ + . + - p + O X X o k . X @ : F k $ P k s - r O O % r + @ $ & f O = f - + = X   O & = X X . X &   O ~ q ; g h O X + "
};
