/* XPM */
static char *_f30f7fc2b26474ab38c79bb5e865b70T1nrMpD9uoRC3nQe[] = {
/* columns rows colors chars-per-pixel */
"64 64 69 1 ",
"  c #0E750E",
". c #0E7C0E",
"X c #176617",
"o c #166C16",
"O c #186718",
"+ c #186B18",
"@ c #157515",
"# c #147C14",
"$ c #187218",
"% c #187B18",
"& c #068F06",
"* c #0E840E",
"= c #0C8C0C",
"- c #069406",
"; c #059C05",
": c #0C940C",
"> c #0C9C0C",
", c #138413",
"< c #138B13",
"1 c #188318",
"2 c #188B18",
"3 c #119311",
"4 c #119B11",
"5 c #05A405",
"6 c #04AC04",
"7 c #0AA10A",
"8 c #0AA70A",
"9 c #0DA20D",
"0 c #0CA50C",
"q c #08A808",
"w c #08A908",
"e c #08AC08",
"r c #08AE08",
"t c #0DAA0D",
"y c #0CAE0C",
"u c #00B300",
"i c #02B602",
"p c #05B105",
"a c #04B404",
"s c #00B800",
"d c #02BC02",
"f c #04B904",
"g c #05BD05",
"h c #08B308",
"j c #0AB60A",
"k c #0CB10C",
"l c #09BB09",
"z c #08BD08",
"x c #08BE08",
"c c #11A311",
"v c #10AA10",
"b c #00C100",
"n c #04C104",
"m c #04C404",
"M c #05C405",
"N c #05C705",
"B c #02C902",
"V c #00CC00",
"C c #04CE04",
"Z c #09C209",
"A c #08C508",
"S c #00D200",
"D c #02D202",
"F c #02D502",
"G c #04D004",
"H c #00D900",
"J c #01DD01",
"K c #04D904",
"L c #00E200",
/* pixels */
",$,=FHr4#%,>iV5341%>uS83c%@>bbj-9%,0Gd8c3%3yf6r4<13>ii-#3#2>6di#",
"d=w=MGdn;rr>rb6ng9-85ndMV:>w6iB5g=w0MiiHf9wh66iCnyl>u6;6d:r766n6",
"r:>*lnah-j>:8a5ah8=>>gwal:>>88d>w:>:ar8nww>95;rghjt:75&;a:7>;5d-",
"7*=@>h88=t3#*8>87>.2:w>7r==,:>a=7*=,9w7j>>:<*:7r704,>-&:>*:2:>h=",
"3@%O%<:3*4#$o:<::<$%%<=44%%%%<>.:@%$%<:c=2,%%#3433<$,# *:%21%#>#",
"%%=;@%,2$%<5%2,%%,,8,,%,<o<r%$%X%o2-%@13%%3>,$,1%%<5,$+@2$vG%$%+",
",ndiw<%4,-id53133w6ij<@<4-gj;,%$,:r;j,%c,6d68*,435Md8<%#45JL-,$*",
"6Si6ad;Bu;6drnjBSi6rfr>aC5ww585-y-5:lf7Mddi586wBnudi5ff6BdSS;i;B",
"6b65wr;d6;66>hgina5>w755f>>4:>w-9&:,9w5fwrr:>;rdi6a8>rb;bdBn:8;d",
"-d6>>>:6-&>7=7y6k8:<3==>t:33,,>.3##$,=:t>9>*,=>w8;8>:>j:r6gz*>:h",
"=w>:,:,7&=->,34>9:-><#**4,tA%@#+%%:;##,4<3>>,,3>>:>:%<9=77w7@<*9",
"#>,,12%4,.=<,,<44>>732,,>>BV:=$,,gi6><%><-87:%233:>*,,3,>332o@@3",
"+#$#Gv%3,#,38:<3c:>>8rc-zagM;a-B6Su5aa=j5->8w844>:3<6:2,3<,%;=#%",
",@*;LHw>*<>5fiw6t>7r5fg;lwgM-w5f6M65ra;j7:8aruatt>>rii;=c,3ruig<",
"B-i;VViB6fg8waadnw88>af5grnl=>:h-f8>98>zw;5a5rfMnjf8u6;uB;ia6iS6",
"d>8-gbig5gr-7w5a655:=9h>w8r9#==7&r;:3>&r;;>0:>aaafw>55;5g;w556b6",
"h:>*jh5w:y>=::>79::##34=9:3,o%#=#>*,,3*c&**<,<90wt><>:=>w:>:>8f-",
">*=@8t>9=9<%>>3<3<,#;:2,<2@@;=,%+@$#Ct$3%@#25:<333,,>>*=>*<2>-r=",
"3#%$<>:4<<,3:>>:3,<>66-*>%<8udf,*$,:KH84.,<>wa>>4<,<:>==4%<<<*4,",
"%%:;,<3c33>a>>whwtjra6;rg:aa6uS6B-a;CCdM;yaww67ht>-r:>=3c#tM,#%+",
",gdua33r-56fr>7jhga5i6-5l;hw5un5b>r-nMaz;Ma88a5jrr8u88::t5SF;<@*",
"6Bu6ai>B655a8ranzfw>w5-5a:7>;wd>w->*lnaf>gw-8a5agw555garNabn;u;B",
"6b650w5f8;>>:;jhrw9<4-&-w=:<:>r=7*=@>h8w:w4#=89rr7:>:wj5gwah&8;g",
">a>:3::t:=:<,=99>4<%,*.<>,21,.>.3#@+,<:4*4,%@::>>:,<,>0>r>90,>:h",
"=w:9,2,4,#:>,#<<2,<5,$$#<$vC%$@+%%=;$@,<#,=>#<2,,<=5,<4<4=9y%*=9",
".>:>3,#>=>uw>#2>45nd8,#.>5JL-,@*,giu8<,>*-ui73,3:8560<,=c>w0,%@3",
"+,,>Mt<jw5f5r;0gbubawdh6BdFS;a;B6Fi6af-M6;6i6njgMa56lw>8z7>964#%",
",,:7nf5lrwf5w;rff8dr7rn;bdGM&w;d6Mi58a;g6;6a7fnfMa5rarr5Z>7a6if*",
"B;i5h85nhrg>>:0aj5f8:7l-jagz*>:r-g5;>9:a>-58:yljZa57t75rM5aawrM6",
"g58:<:>j8ww=<*>w8>w*@3w=88a9@<*9=r>:2:*7:&->,>t0r0:=33>7l>79:9u6",
"j:3%#@,c>>4%,o<33=>oo%3,:33%+@@3,>,%,2%>, #,+2334:.%,1<3t:<%2<>-",
"9,#%g<o32,21r#,1%22$r<,@2,%$;=%%+$$$Zc$2@o+1531%21+,54%%3%$%f<,=",
"8%,9Siwc3%3yi6a3<13>du-#4%,>iif#,$,=SHw4#%%7dB734,%>uS83c$@7bbj:",
"f=r8niiKf9wra6iCnyj>u6;5g:w85iB5g=w&nGdn;hr>rbung9-85BinG:>0ain5",
"w:>>lrrMww>>8;rzwzt:85&;j&7>>5g-r:>*zMaj-j>:5a5aw8=>>f5jz->>5wd;",
"7*<,>77j>c:<*:7w704,>-&-9*3,:>r=9*=@>w88=t=#*w>87>,,:w>9r=<,:>h=",
"3@%o%=30=<1%%*:>331$%, *3#<1%*>#:#$X1<:>*3%$o3=3:<$%%:=>>%$%%,>#",
"%$,>%%,2$%3>%@%2%%3w,$+$<$vC%$%+%%<;$%,1@%<8%2,%%1,5,%%,2+36%$#+",
",:65w,14,wbr5,,435nd5<%.35JL-,@,,gdiw<%4,-id53,33wiij<@<4>dl>*%o",
"r-5:lf7Bfdd6866Mnudiwgg6VgFF-i;B6Si6ad>Bu;udrMjBSg68fr>iB58w568-",
"9=:*9w8lwar::>rad5a5>rn5biBn&0;d6B660w;d8;56>hgfna5>t75wg>>4>>a=",
":#%@,::0>7>=,=>8w58>:>h:rrgz*>:w-d5->9:r;-;><9wwh8:=3==-r=33,,>#",
"%,<;#%,4<3>>,,3:>:9=#<0=97w9@<*9=6>:,3*>==->,3>>4::><,,*4,0M#@@o",
",gi6;,%4<-w7:,2:3:>*,%3,>3>,+%@:#4*,<<#4,.=3,1334>>93,,,47CC-<$,",
"6S66ah=jw-90r0444>3=w:<,3<,%;:%%o%@%Sv@3,.,<r:<>0:>>5w9-frnM;u-B",
"5M66ha;j>&7araatt4>wdi;=c,3wudn**$,-LH89=<>5id80y>9w8fg>zrgn:w;g",
"-d5>>8>g5;8a5wfMMafwu6;uB;da6uS6B>i;BSdB6ld56urbbwrw>af5grgl=>-h",
"=6>:3>&r;;>9:5hfalw:75;5g;r756n5d;5:gbag;gw>755aa5>:*0r>h5r9.<=9",
"#>.,13,c=**<,3>tt0><:>&>w:>:-7f>w->*khwr-h>=3>>80>:%#3>=>:3,o%#=",
"o#$#Gt%3%@#<;:<333,,>:*=>,3,>>r=9*<@08>9<4<#>:=<<<,#>:2,3,@$;=%%",
",@,-JF54*%<>wa>>4<,=>>*,>#22<*>.3@%$3>>4,32::7>::2<>6u:=4%<8uin,",
"B-u;CVin;ja8wr7at:>r>>=:c#tM*%%+%%:5,,3c33>a>>8hwtar66;6g:fa6iF6",
"g5w-nBag;Au76a>jhw6aw03-t5SF>=@,*gdir:3y:5uaw57jwga5a8-5l;hr56B6",
"r:;*znrl>zw:5awfgw557na6BabM;a;B6Su6ai;B655a86agzfr>86-7a-7>;5f-",
"7*=@>j8w:w:,=w5ww7:>-yf8gwah=8;g6n6;88>f8->>:>rhrr9<>-&-w=3<:>h=",
"3@%+,<:>*4,@@3:>>:,<,>c>t>8t*>-k-a7:<>:8:=:3,<99>4<%<,.<>#2,,.>#",
"%%=;@@,<%,:>%2,,2<=5,23<4<0y#=*9=w:9,2,><#:>,#<3,,35,@o@<$vG%$#+",
",Zdu8<1>,-ud53,::75r8<,:>>w0,%@3%>:>3,%4<-a8>,<447bi8*%.48LL-,$,",
"6Si6ad-Mu;6irnjgBu6wfw>5z9>>w>,%o,,:Aw=lw5i66;8in6biwil6BbFF;i-B",
"6B658h;g6-6u7lZfM6;6arr8A7>aaia*<,-wMf5jw5d8w;rff6g67aA;biVM&w5d",
"-g5;-0:h;-5w:yjjZa;88>5rM5ajrrb6B>u5hw7nhrg>>&wjj6i7:9l-a6Mz*>:r",
"=r>:24*7:=->,>t8r8:=3:>>z>9>3>i5d58:3:>j88r=2*>w8>w*@:t&08h9$=*7",
"#:#,12%:* #,o23344#%,12:c:<,2<>>h:3%%@,94>>%,+<3:<>+o%4,>33%+@#:",
"o%$$bc$2$O$1531%,,$,04%%3,+%f<,=9,%%z<+3<121a#11%,2@r<%$2,$$;<%$"
};
