/* XPM */
static char *_631a3cb7c5a44d0cf7929af82bbd89dYl4MF7DZgPqWw9Rs[] = {
/* columns rows colors chars-per-pixel */
"128 128 30 1 ",
"  c black",
". c #070707",
"X c gray6",
"o c #101010",
"O c #181818",
"+ c gray12",
"@ c #202020",
"# c #2F2F2F",
"$ c gray19",
"% c #3F3F3F",
"& c gray25",
"* c gray31",
"= c #505050",
"- c #5F5F5F",
"; c #606060",
": c #6F6F6F",
"> c gray44",
", c gray50",
"< c #808080",
"1 c gray56",
"2 c #909090",
"3 c #9F9F9F",
"4 c #A0A0A0",
"5 c #AFAFAF",
"6 c gray75",
"7 c #C0C0C0",
"8 c gray81",
"9 c #DFDFDF",
"0 c #EFEFEF",
"q c white",
/* pixels */
"qqqqqqqqqqqqqqqqqqqqqqqqqqqqqqqqqqqqqqqqqqqqqqqqqqqqqqqqqqqqqqqqqqqqqqqqqqqqqqqqqqqqqqqqqqqqqqqqqqqqqqqqqqqqqqqqqqqqqqqqqqqqqqqq",
"qqqqqqqqqqqqqqqqqqqqqqqqqqqqqqqqqqqqqqqqqqqqqqqqqqqqqqqqqqqqqqqqqqqqqqqqqqqqqqqqqqqqqqqqqqqqqqqqqqqqqqqqqqqqqqqqqqqqqqqqqqqqqqqq",
"qqqqqqqqqqqqqqqqqqqqqqqqqqqqqqqqqqqqqqqqqqqqqqqqqqqqqqqqqqqqqqqqqqqqqqqqqqqqqqqqqqqqqqqqqqqqqqqqqqqqqqqqqqqqqqqqqqqqqqqqqqqqqqqq",
"qqqqqqqqqqqqqqqqqqqqqqqqqqqqqqqqqqqqqqqqqqqqqqqqqqqqqqqqqqqqqqqqqqqqqqqqqqqqqqqqqqqqqqqqqqqqqqqqqqqqqqqqqqqqqqqqqqqqqqqqqqqqqqqq",
"qqqqqqqqqqqqqqqqqqqqqqqqqqqqqqqqqqqqqqqqqqqqqqqqqqqqqqqqqqqqqqqqqqqqqqqqqqqqqqqqqqqqqqqqqqqqqqqqqqqqqqqqqqqqqqqqqqqqqqqqqqqqqqqq",
"qqqqqqqqqqqqqqqqqqqqqqqqqqqqqqqqqqqqqqqqqqqqqqqqqqqqqqqqqqqqqqqqqqqqqqqqqqqqqqqqqqqqqqqqqqqqqqqqqqqqqqqqqqqqqqqqqqqqqqqqqqqqqqqq",
"qqqqqqqqqqqqqqqqqqqqqqqqqqqqqqqqqqqqqqqqqqqqqqqqqqqqqqqqqqqqqqqqqqqqqqqqqqqqqqqqqqqqqqqqqqqqqqqqqqqqqqqqqqqqqqqqqqqqqqqqqqqqqqqq",
"qqqqqqqqqqqqqqqqqqqqqqqqqqqqqqqqqqqqqqqqqqqqqqqqqqqqqqqqqqqqqqqqqqqqqqqqqqqqqqqqqqqqqqqqqqqqqqqqqqqqqqqqqqqqqqqqqqqqqqqqqqqqqqqq",
"qqqqqqqqqqqqqqqqqqqqqqqqqqqqqqqqqqqqqqqqqqqqqqqqqqqqqqqqqqqqqqqqqqqqqqqqqqqqqqqqqqqqqqqqqqqqqqqqqqqqqqqqqqqqqqqqqqqqqqqqqqqqqqqq",
"qqqqqqqqqqqqqqqqqqqqqqqqqqqqqqqqqqqqqqqqqqqqqqqqqqqqqqqqqqqqqqqqqqqqqqqqqqqqqqqqqqqqqqqqqqqqqqqqqqqqqqqqqqqqqqqqqqqqqqqqqqqqqqqq",
"qqqqqqqqqqqqqqqqqqqqqqqqqqqqqqqqqqqqqqqqqqqqqqqqqqqqqqqqqqqqqqqqqqqqqqqqqqqqqqqqqqqqqqqqqqqqqqqqqqqqqqqqqqqqqqqqqqqqqqqqqqqqqqqq",
"qqqqqqqqqqqqqqqqqqqqqqqqqqqqqqqqqqqqqqqqqqqqqqqqqqqqqqqqqqqqqqqqqqqqqqqqqqqqqqqqqqqqqqqqqqqqqqqqqqqqqqqqqqqqqqqqqqqqqqqqqqqqqqqq",
"qqqqqqqqqqqqqqqqqqqqqqqqqqqqqqqqqqqqqqqqqqqqqqqqqqqqqqqqqqqqqqqqqqqqqqqqqqqqqqqqqqqqqqqqqqqqqqqqqqqqqqqqqqqqqqqqqqqqqqqqqqqqqqqq",
"qqqqqqqqqqqqqqqqqqqqqqqqqqqqqqqqqqqqqqqqqqqqqqqqqqqqqqqqqqqqqqqqqqqqqqqqqqqqqqqqqqqqqqqqqqqqqqqqqqqqqqqqqqqqqqqqqqqqqqqqqqqqqqqq",
"qqqqqqqqqqqqqqqqqqqqqqqqqqqqqqqqqqqqqqqqqqqqqqqqqqqq070qqqqqqqqqqqqqqqqqqqqqqqqqqqqqqqqqqqqqqqqqqqqqqqqqqqqqqqqqqqqqqqqqqqqqqqqq",
"qqqqqqqqqqqq0>&5qqqqqqqqqqqqqqqqqqqqqqqqqqqqqqqqqqq9   9qqqqqqqqqqqqqqqqqqqqqqqqqqqqqqqqqqqqqqqqqqqqqqqqqqqqqqqqqqqqqqqqqqqqqqqq",
"qqqqqqqqqq8;O  o9qqqqqqqqqqqqqqqqqqqqqqqqqqqqqqqqqq1   1qqqqqqqqqqqqqqqqqqqqqqqqqqqqqqqqqqqqqqqqqqqqqqqqqqqqqqqqqqqqqqqqqqqqqqqq",
"qqqqqqqqqq-     :qqqqqqqqqqqqqqqqqqqqqqqqqqqqqqqqqq,   ,qqqqqqqqqqqqqqqqqqqqqqqqqqqqqqqqqqqqqqqqqqqqqqqqqqqqqqqqqqqqqqqqqqqqqqqq",
"qqqqqqqqqq%     o0qqqqqqqqqqqqqqqqqqqqqqqqqqqqqqqqq,   ,qqqqqqqqqqqqqqqqqqqqqqqqqqqqqqqqqqqqqqqqqqqqqqqqqqqqqqqqqqqqqqqqqqqqqqqq",
"qqqqqqqqqq&      1qqqqqqqqqqqqqqqqqqqqqqqqqqqqqqqqq,   ,qqqqqqqqqqqqqqqqqqqqqqqqqqqqqqqqqqqqqqqqqqqqqqqqqqqqqqqqqqqqqqqqqqqqqqqq",
"qqqqqqqqqq:      @qqqqqqqqqqqqqqqqqqqqqqqqqqqqqqqqq,   ,qqqqqqqqqqqqqqqqqqqqqqqqqqqqqqqqqqqqqqqqqqqqqqqqqqqqqqqqqqqqqqqqqqqqqqqq",
"qqqqqqqqqq,   .   3qqqqqqqqqqqqqqqqqqqqqqqqqqqqqqqq,   ,qqqqqqqqqqqqqqqqqqqqqqqqq8qqqqqqqqqqqqqqqqqqqqqqqqqqqqqqqqqqqqqqqqqqqqqq",
"qqqqqqqqqq5   +   *qqqqqqqqqqqqqqqqqqqqqqqqqqqqqqqq5   %qqqqqqqqqqqqqqqqqqqqqqqq= o;6qqqqqqqqqqqqqqqqqqqqqqqqqqqqqqqqqqqqqqqqqqq",
"qqqqqqqqqq6   $    9qqqqqqqqqqqqqqqqqqqqqqqqqqqqqqq6   %qqqqqqqqqqqqqqqqqqqqqqq6     &9qqqqqqqqqqqqqqqqqqqqqqqqqqqqqqqqqqqqqqqqq",
"qqqqqqqqqq6   %#   -qqqqqqqqqqqqqqqqqqqqqqqqqqqqqqq6   %qqqqqqqqqqqqqqqqqqqqqqq5      o8qqqqqqqqqqqqqqqqqqqqqqqqqqqqqqqqqqqqqqqq",
"qqqqqqqqqq6   %3    5qqqqqqqqqqqqqqqqqqqqqqqqqqqqqq6   %qqqqqqqqqqqqqqqqqqqqqqq<o       8qqqqqqqqqqqqqqqqqqqqqqqqqqqqqqqqqqqqqqq",
"qqqqqqqqqq6   %q#   o9qqqqqqqqqqqqqqqqqqqqqqqqqqqqq6   %qqqqqqqqqqqqqqqqqqqqq0&         o5qqqqqqqqqqqqqqqqqqqqqqqqqqqqqqqqqqqqqq",
"qqqqqqqqqq6   %q8    $qqqqqqqqqqqqqqqqqqqqqqqqqqqqq6   %qqqqqqqqqqqqqqqqqqqq5o     +:     8qqqqqqqqqqqqqqqqqqqqqqqqqqqqqqqqqqqqq",
"qqqqqqqqqq6   %qq1    :qqqqqqqqqqqqqqqqqqqqqqqqqqqq9   @qqqqqqqqqqqqqqqqqqq;     X3qq3    @0qqqqqqqqqqqqqqqqqqqqqqqqqqqqqqqqqqqq",
"qqqqqqqqqq6   %qqq*    5qqqqqqqqqqqqqqqqqqqqqqqqqqqq    qqqqqqqqqqqqqqqqq0$     %0qqqq3    $0qqqqqqqqqqqqqqqqqqqqqqqqqqqqqqqqqqq",
"qqqqqqqqqq6   %qqq0+   o0qqqqqqqqqqqqqqqqqqqqqqqqqqq    qqqqqqqqqqqqqqqq8@     1qqqqqqq,    -qqqqqqqqqqqqqqqqqqqqqqqqqqqqqqqqqqq",
"qqqqqqqqqq6   %qqqq8    &qqqqqqqqqqqqqqqqqqqqqqqqqqq+   9qqqqqqqqqqqqqq9o    #8qqqqqqqq0#    6qqqqqqqqqqqqqqqqqqqqqqqqqqqqqqqqqq",
"qqqqqqqqqq6   %qqqqq,    1qqqqqqqqqqqqqqqqqqqqqqqqqq%   6qqqqqqqqqqqqq0$    %0qqqqqqqqqq0#   @0qqqqqqqqqqqqqqqqqqqqqqqqqqqqqqqqq",
"qqqqqqqqqq6   %qqqqqq%   o9qqqqqqqqqqqqqqqqqqqqqqqqq%   6qqqqqqqqqqqq6o    -qqqqqqqqqqqqq6    =qqqqqqqqqqqqqqqqqqqqqqqqqqqqqqqqq",
"qqqqqqqqqq6   %qqqqqq9X   &qqqqqqqqqqqqqqqqqqqqqqqqq%   6qqqqqqqqqqq3     -qqqqqqqqqqqqqqq:    ;qqqqqqqqqqqqqqqqqqqqqqqqqqqqqqqq",
"qqqqqqqqqq6   %qqqqqqq1    5qqqqqqqqqqqqqqqqqqqqqqqq%   6qqqqqqqqqq3     -qqqqqqqqqqqqqqqqq#    :qqqqqqqqqqqqqqqqqqqqqqqqqqqqqqq",
"qqqqqqqqqq6   %qqqqqqqq%   o0qqqqqqqqqqqqqqqqqqqqqqq%   6qqqqqqqqq3     ,qqqqqqqqqqqqqqqqqq0#    3qqqqqqqqqqqqqqqqqqqqqqqqqqqqqq",
"qqqqqqqqqq6   %qqqqqqqq9X   =qqqqqqqqqqqqqqqqqqqqqqq%   6qqqqqqqq8     3qqqqqqqqqqqqqqqqqqqq0+    3qqqqqqqqqqqqqqqqqqqqqqqqqqqqq",
"qqqqqqqqqq6   %qqqqqqqqq1    5qqqqqqqqqqqqqqqqqqqqqq:   ,qqqqqqqq@    3qqqqqqqqqqqqqqqqqqqqqq8X    9qqqqqqqqqqqqqqqqqqqqqqqqqqqq",
"qqqqqqqqqq6   %qqqqqqqqqq%   o0qqqqqqqqqqqqqqqqqqqqq,   ,qqqqqqq,    3qqqqqqqqqqqqqqqqqqqqqqqq3    $0qqqqqqqqqqqqqqqqqqqqqqqqqqq",
"qqqqqqqqqq6   %qqqqqqqqqq9    =qqqqqqqqqqqqqqqqqqqqq6   %qqqqqq0o   :qqqqqqqqqqqqqqqqqqqqqqqqqq3    $qqqqqqqqqqqqqqqqqqqqqqqqqqq",
"qqqqqqqqqq8   @qqqqqqqqqqq,    3qqqqqqqqqqqqqqqqqqqq6   %qqqqqq,   X0qqqqqqqqqqqqqqqqqqqqqqqqqqq*    ,qqqqqqqqqqqqqqqqqqqqqqqqqq",
"qqqqqqqqqqq    qqqqqqqqqqqq#   o9qqqqqqqqqqqqqqqqqqq6   %qqqqqq@   ,qqqqqqqqqqqqqqqqqqqqqqqqqqqq0#    9qqqqqqqqqqqqqqqqqqqqqqqqq",
"qqqqqqqqqqq    qqqqqqqqqqqq9X   $qqqqqqqqqqqqqqqqqqq0    qqqqq3   X0qqqqqqqqqqqqqqqqqqqqqqqqqqqqq0X   =qqqqqqqqqqqqqqqqqqqqqqqqq",
"qqqqqqqqqqq    qqqqqqqqqqqqq1    ,qqqqqqqqqqqqqqqqqqq    qqqqq&   -qqqqqqqqqqqqqqqqqqqqqqqqqqqqqqq3    6qqqqqqqqqqqqqqqqqqqqqqqq",
"qqqqqqqqqqqX   9qqqqqqqqqqqqq*    8qqqqqqqqqqqqqqqqqq    qqqq9    9qqqqqqqqqqqqqqqqqqqqqqqqqqqqqqqq%   &qqqqqqqqqqqqqqqqqqqqqqqq",
"qqqqqqqqqqq%   6qqqqqqqqqqqqq0X   &qqqqqqqqqqqqqqqqqq    qqqq:   %qqqqqqqqqqqqqqqqqqqqqqqqqqqqqqqqq6    6qqqqqqqqqqqqqqqqqqqqqqq",
"qqqqqqqqqqq%   6qqqqqqqqqqqqqq5    3qqqqqqqqqqqqqqqqq    qqqqo   3qqqqqqqqqqqqqqqqqqqqqqqqqqqqqqqqqq%   *qqqqqqqqqqqqqqqqqqqqqqq",
"qqqqqqqqqqq%   6qqqqqqqqqqqqqqq*   o0qqqqqqqqqqqqqqqq    qqq5   Xqqqqqqqqqqqqqqqqqqqqqqqqqqqqqqqqqqq6    0qqqqqqqqqqqqqqqqqqqqqq",
"qqqqqqqqqqq%   6qqqqqqqqqqqqqqq9X   :qqqqqqqqqqqqqqqq    qqq,   :qqqqqqqqqqqqqqqqqqqqqqqqqqqqqqqqqqqq+   3qqqqqqqqqqqqqqqqqqqqqq",
"qqqqqqqqqqq:   ,qqqqqqqqqqqqqqqq,    8qqqqqqqqqqqqqqq    qqq%   5qqqqqqqqqqqqqqqqqqqqqqqqqqqqqqqqqqqq,   $qqqqqqqqqqqqqqqqqqqqqq",
"qqqqqqqqqqq,   :qqqqqqqqqqqqqqqqq+   &qqqqqqqqqqqqqqq    qqq    9qqqqqqqqqqqqqqqqqqqqqqqqqqqqqqqqqqqq9    9qqqqqqqqqqqqqqqqqqqqq",
"qqqqqqqqqqq5   @qqqqqqqqqqqqqqqqq6    5qqqqqqqqqqqqqq    qq9   Xqqqqqqqqqqqqqqqqqqqqqqqqqqqqqqqqqqqqqq%   -qqqqqqqqqqqqqqqqqqqqq",
"qqqqqqqqqqq0    9qqqqqqqqqqqqqqqqq%   @qqqqqqqqqqqqqq    qq6   %qqqqqqqqqqqqqqqqqqqqqqqqqqqqqqqqqqqqqq3   o0qqqqqqqqqqqqqqqqqqqq",
"qqqqqqqqqqqq%   5qqqqqqqqqqqqqqqqq9    3qqqqqqqqqqqqq    qq6   %qqqqqqqqqqqqqqqqqqqqqqqqqqqqqqqqqqqqqqq+   5qqqqqqqqqqqqqqqqqqqq",
"qqqqqqqqqqqq,   ,qqqqqqqqqqqqqqqqqq-   @qqqqqqqqqqqqq    qq1   :qqqqqqqqqqqqqqqqqqqqqqqqqqqqqqqqqqqqqqq:   :qqqqqqqqqqqqqqqqqqqq",
"qqqqqqqqqqqq1   *qqqqqqqqqqqqqqqqqq0X   ,qqqqqqqqqqqq    qq,   ,qqqqqqqqqqqqqqqqqqqqqqqqqqqqqqqqqqqqqqq5   @qqqqqqqqqqqqqqqqqqqq",
"qqqqqqqqqqqq8   @qqqqqqqqqqqqqqqqqqq,    9qqqqqqqqqqq    qq,   ,qqqqqqqqqqqqqqqqqqqqqqqqqqqqqqqqqqqqqqqq    8qqqqqqqqqqqqqqqqqqq",
"qqqqqqqqqqqqqX   5qqqqqqqqqqqqqqqqqq0X   &qqqqqqqqqq6   #qq,   ,qqqqqqqqqqqqqqqqqqqqqqqqqqqqqqqqqqqqqqqq*   1qqqqqqqqqqqqqqqqqqq",
"qqqqqqqqqqqqq-   ,qqqqqqqqqqqqqqqqqqq5    6qqqqqqqqq6   %qq,   ,qqqqqqqqqqqqqqqqqqqqqqqqqqqqqqqqqqqqqqqq,   :qqqqqqqqqqqqqqqqqqq",
"qqqqqqqqqqqqq3   *qqqqqqqqqqqqqqqqqqqq%   *qqqqqqqqq6   %qq,   ,qqqqqqqqqqqqqqqqqqqqqqqqqqqqqqqqqqqqqqqq6   %qqqqqqqqqqqqqqqqqqq",
"qqqqqqqqqqqqq8   oqqqqqqqqqqqqqqqqqqqq8    9qqqqqqqq,   :qq,   ,qqqqqqqqqqqqqqqqqqqqqqqqqqqqqqqqqqqqqqqq9   oqqqqqqqqqqqqqqqqqqq",
"qqqqqqqqqqqqqqX   9qqqqqqqqqqqqqqqqqqqq#   -qqqqqqqq,   ,qq,   :qqqqqqqqqqqqqqqqqqqqqqqqqqqqqqqqqqqqqqqqq    qqqqqqqqqqqqqqqqqqq",
"qqqqqqqqqqqqqq%   3qqqqqqqqqqqqqqqqqqqq3    0qqqqqqq:   1qq6   %qqqqqqqqqqqqqqqqqqqqqqqqqqqqqqqqqqqqqqqqq    qqqqqqqqqqqqqqqqqqq",
"qqqqqqqqqqqqqq,   ,qqqqqqqqqqqqqqqqqqqqq+   1qqqqqqq%   6qq0    0qqqqqqqqqqqqqqqqqqqqqqqqqqqqqqqqqqqqqqqq    qqqqqqqqqqqqqqqqqqq",
"qqqqqqqqqqqqqq3   *qqqqqqqqqqqqqqqqqqqqq1   %qqqqqqq%   6qqq#   3qqqqqqqqqqqqqqqqqqqqqqqqqqqqqqqqqqqqqqqq    qqqqqqqqqqqqqqqqqqq",
"qqqqqqqqqqqqqq8   oqqqqqqqqqqqqqqqqqqqqq9    0qqqqqq%   6qqq,   @qqqqqqqqqqqqqqqqqqqqqqqqqqqqqqqqqqqqqqqq    qqqqqqqqqqqqqqqqqqq",
"qqqqqqqqqqqqqqqX   8qqqqqqqqqqqqqqqqqqqqq#   6qqqqqq%   6qqq0X   3qqqqqqqqqqqqqqqqqqqqqqqqqqqqqqqqqqqqqqq    qqqqqqqqqqqqqqqqqqq",
"qqqqqqqqqqqqqqq-   ,qqqqqqqqqqqqqqqqqqqqq-   ,qqqqqq@   8qqqq:   $qqqqqqqqqqqqqqqqqqqqqqqqqqqqqqqqqqqqqqq    qqqqqqqqqqqqqqqqqqq",
"qqqqqqqqqqqqqqq3   *qqqqqqqqqqqqqqqqqqqqq1   *qqqqqq    qqqqq9    8qqqqqqqqqqqqqqqqqqqqqqqqqqqqqqqqqqqqqq    qqqqqqqqqqqqqqqqqqq",
"qqqqqqqqqqqqqqq6   %qqqqqqqqqqqqqqqqqqqqq6   %qqqqqq    qqqqqq*   ,qqqqqqqqqqqqqqqqqqqqqqqqqqqqqqqqqqqqqq    qqqqqqqqqqqqqqqqqqq",
"qqqqqqqqqqqqqqq9   oqqqqqqqqqqqqqqqqqqqqqq    qqqqq9   +qqqqqq5   $qqqqqqqqqqqqqqqqqqqqqqqqqqqqqqqqqqqqqq    qqqqqqqqqqqqqqqqqqq",
"qqqqqqqqqqqqqqqqX   9qqqqqqqqqqqqqqqqqqqqqX   8qqqq6   %qqqqqq9    5qqqqqqqqqqqqqqqqqqqqqqqqqqqqqqqqqqqqq    qqqqqqqqqqqqqqqqqqq",
"qqqqqqqqqqqqqqqq%   6qqqqqqqqqqqqqqqqqqqqq%   1qqqq6   %qqqqqqq%   @0qqqqqqqqqqqqqqqqqqqqqqqqqqqqqqqqqqqq    qqqqqqqqqqqqqqqqqqq",
"qqqqqqqqqqqqqqqq*   3qqqqqqqqqqqqqqqqqqqqq1   $qqqq6   %qqqqqqq9    ,qqqqqqqqqqqqqqqqqqqqqqqqqqqqqqqqqqq0    qqqqqqqqqqqqqqqqqqq",
"qqqqqqqqqqqqqqqq,   :qqqqqqqqqqqqqqqqqqqqq9    0qqq6   %qqqqqqqq,   o8qqqqqqqqqqqqqqqqqqqqqqqqqqqqqqqqqq6   %qqqqqqqqqqqqqqqqqqq",
"qqqqqqqqqqqqqqqq5   @qqqqqqqqqqqqqqqqqqqqqq#   6qqq6   %qqqqqqqq0X   $0qqqqqqqqqqqqqqqqqqqqqqqqqqqqqqqqq,   :qqqqqqqqqqqqqqqqqqq",
"qqqqqqqqqqqqqqqq0X   9qqqqqqqqqqqqqqqqqqqqq-   1qqq6   %qqqqqqqqq1    =qqqqqqqqqqqqqqqqqqqqqqqqqqqqqqqqq%   3qqqqqqqqqqqqqqqqqqq",
"qqqqqqqqqqqqqqqqq%   6qqqqqqqqqqqqqqqqqqqqq,   ,qqq1   -qqqqqqqqqq-    1qqqqqqqqqqqqqqqqqqqqqqqqqqqqqqqq    9qqqqqqqqqqqqqqqqqqq",
"qqqqqqqqqqqqqqqqq*   3qqqqqqqqqqqqqqqqqqqqq,   ,qqq,   ,qqqqqqqqqqq#   o9qqqqqqqqqqqqqqqqqqqqqqqqqqqqqq5   +qqqqqqqqqqqqqqqqqqqq",
"qqqqqqqqqqqqqqqqq1   *qqqqqqqqqqqqqqqqqqqqq,   :qqq,   ,qqqqqqqqqqq9X   &qqqqqqqqqqqqqqqqqqqqqqqqqqqqqq:   -qqqqqqqqqqqqqqqqqqqq",
"qqqqqqqqqqqqqqqqq6   o0qqqqqqqqqqqqqqqqqqqq5   %qqq,   ,qqqqqqqqqqqq1    5qqqqqqqqqqqqqqqqqqqqqqqqqqqqq%   5qqqqqqqqqqqqqqqqqqqq",
"qqqqqqqqqqqqqqqqqqX   3qqqqqqqqqqqqqqqqqqqq6   %qqq,   ,qqqqqqqqqqqqq%   @qqqqqqqqqqqqqqqqqqqqqqqqqqqqq    0qqqqqqqqqqqqqqqqqqqq",
"qqqqqqqqqqqqqqqqqq,   *qqqqqqqqqqqqqqqqqqqq9    qqq%   6qqqqqqqqqqqqq9    3qqqqqqqqqqqqqqqqqqqqqqqqqqq5   +qqqqqqqqqqqqqqqqqqqqq",
"qqqqqqqqqqqqqqqqqq8   oqqqqqqqqqqqqqqqqqqqqq    9qq%   6qqqqqqqqqqqqqq-   @qqqqqqqqqqqqqqqqqqqqqqqqqqq-   *qqqqqqqqqqqqqqqqqqqqq",
"qqqqqqqqqqqqqqqqqqq    9qqqqqqqqqqqqqqqqqqqq%   6qqo   9qqqqqqqqqqqqqq9    1qqqqqqqqqqqqqqqqqqqqqqqqq6    6qqqqqqqqqqqqqqqqqqqqq",
"qqqqqqqqqqqqqqqqqqq%   5qqqqqqqqqqqqqqqqqqqq*   3qq    qqqqqqqqqqqqqqqq-   o0qqqqqqqqqqqqqqqqqqqqqqqq&   %qqqqqqqqqqqqqqqqqqqqqq",
"qqqqqqqqqqqqqqqqqqq:   *qqqqqqqqqqqqqqqqqqqq,   :q6   #qqqqqqqqqqqqqqqq0X   =qqqqqqqqqqqqqqqqqqqqqqq6    6qqqqqqqqqqqqqqqqqqqqqq",
"qqqqqqqqqqqqqqqqqqq6    qqqqqqqqqqqqqqqqqqqq6   %q,   -qqqqqqqqqqqqqqqqq1    ,qqqqqqqqqqqqqqqqqqqqqq&   *qqqqqqqqqqqqqqqqqqqqqqq",
"qqqqqqqqqqqqqqqqqqqq+   8qqqqqqqqqqqqqqqqqqq8   @q$   3qqqqqqqqqqqqqqqqqq#    5qqqqqqqqqqqqqqqqqqqq3    6qqqqqqqqqqqqqqqqqqqqqqq",
"qqqqqqqqqqqqqqqqqqqq%   5qqqqqqqqqqqqqqqqqqqq    9    9qqqqqqqqqqqqqqqqqq8X   o8qqqqqqqqqqqqqqqqqq9o   #qqqqqqqqqqqqqqqqqqqqqqqq",
"qqqqqqqqqqqqqqqqqqqq,   ,qqqqqqqqqqqqqqqqqqqq    -   %qqqqqqqqqqqqqqqqqqqq6     <qqqqqqqqqqqqqqqq9$   X8qqqqqqqqqqqqqqqqqqqqqqqq",
"qqqqqqqqqqqqqqqqqqqq3   *qqqqqqqqqqqqqqqqqqqq+       3qqqqqqqqqqqqqqqqqqqqq3     &9qqqqqqqqqqqqq3o    1qqqqqqqqqqqqqqqqqqqqqqqqq",
"qqqqqqqqqqqqqqqqqqqq6   %qqqqqqqqqqqqqqqqqqqq*      +qqqqqqqqqqqqqqqqqqqqqqq:      <qqqqqqqqqqq3     -qqqqqqqqqqqqqqqqqqqqqqqqqq",
"qqqqqqqqqqqqqqqqqqqq6   %qqqqqqqqqqqqqqqqqqqq3      6qqqqqqqqqqqqqqqqqqqqqqqq6+     =4qqqqqq92$     -qqqqqqqqqqqqqqqqqqqqqqqqqqq",
"qqqqqqqqqqqqqqqqqqqq8   @qqqqqqqqqqqqqqqqqqqq0     :qqqqqqqqqqqqqqqqqqqqqqqqqq0%      @><<<=       1qqqqqqqqqqqqqqqqqqqqqqqqqqqq",
"qqqqqqqqqqqqqqqqqqqqq+  *qqqqqqqqqqqqqqqqqqqqq*   ,qqqqqqqqqqqqqqqqqqqqqqqqqqqqq5X               X3qqqqqqqqqqqqqqqqqqqqqqqqqqqqq",
"qqqqqqqqqqqqqqqqqqqqq6*:9qqqqqqqqqqqqqqqqqqqqqqqqqqqqqqqqqqqqqqqqqqqqqqqqqqqqqqqq9%             %8qqqqqqqqqqqqqqqqqqqqqqqqqqqqqq",
"qqqqqqqqqqqqqqqqqqqqqqqqqqqqqqqqqqqqqqqqqqqqqqqqqqqqqqqqqqqqqqqqqqqqqqqqqqqqqqqqqqq8-        #38qqqqqqqqqqqqqqqqqqqqqqqqqqqqqqqq",
"qqqqqqqqqqqqqqqqqqqqqqqqqqqqqqqqqqqqqqqqqqqqqqqqqqqqqqqqqqqqqqqqqqqqqqqqqqqqqqqqqqqqqqqqqqqqqqqqqqqqqqqqqqqqqqqqqqqqqqqqqqqqqqqq",
"qqqqqqqqqqqqqqqqqqqqqqqqqqqqqqqqqqqqqqqqqqqqqqqqqqqqqqqqqqqqqqqqqqqqqqqqqqqqqqqqqqqqqqqqqqqqqqqqqqqqqqqqqqqqqqqqqqqqqqqqqqqqqqqq",
"qqqqqqqqqqqqqqqqqqqqqqqqqqqqqqqqqqqqqqqqqqqqqqqqqqqqqqqqqqqqqqqqqqqqqqqqqqqqqqqqqqqqqqqqqqqqqqqqqqqqqqqqqqqqqqqqqqqqqqqqqqqqqqqq",
"qqqqqqqqqqqqqqqqqqqqqqqqqqqqqqqqqqqqqqqqqqqqqqqqqqqqqqqqqqqqqqqqqqqqqqqqqqqqqqqqqqqqqqqqqqqqqqqqqqqqqqqqqqqqqqqqqqqqqqqqqqqqqqqq",
"qqqqqqqqqqqqqqqqqqqqqqqqqqqqqqqqqqqqqqqqqqqqqqqqqqqqqqqqqqqqqqqqqqqqqqqqqqqqqqqqqqqqqqqqqqqqqqqqqqqqqqqqqqqqqqqqqqqqqqqqqqqqqqqq",
"qqqqqqqqqqqqqqqqqqqqqqqqqqqqqqqqqqqqqqqqqqqqqqqqqqqqqqqqqqqqqqqqqqqqqqqqqqqqqqqqqqqqqqqqqqqqqqqqqqqqqqqqqqqqqqqqqqqqqqqqqqqqqqqq",
"qqqqqqqqqqqqqqqqqqqqqqqqqqqqqqqqqqqqqqqqqqqqqqqqqqqqqqqqqqqqqqqqqqqqqqqqqqqqqqqqqqqqqqqqqqqqqqqqqqqqqqqqqqqqqqqqqqqqqqqqqqqqqqqq",
"qqqqqqqqqqqqqqqqqqqqqqqqqqqqqqqqqqqqqqqqqqqqqqqqqqqqqqqqqqqqqqqqqqqqqqqqqqqqqqqqqqqqqqqqqqqqqqqqqqqqqqqqqqqqqqqqqqqqqqqqqqqqqqqq",
"qqqqqqqqqqqqqqqqqqqqqqqqqqqqqqqqqqqqqqqqqqqqqqqqqqqqqqqqqqqqqqqqqqqqqqqqqqqqqqqqqqqqqqqqqqqqqqqqqqqqqqqqqqqqqqqqqqqqqqqqqqqqqqqq",
"qqqqqqqqqqqqqqqqqqqqqqqqqqqqqqqqqqqqqqqqqqqqqqqqqqqqqqqqqqqqqqqqqqqqqqqqqqqqqqqqqqqqqqqqqqqqqqqqqqqqqqqqqqqqqqqqqqqqqqqqqqqqqqqq",
"qqqqqqqqqqqqqqqqqqqqqqqqqqqqqqqqqqqqqqqqqqqqqqqqqqqqqqqqqqqqqqqqqqqqqqqqqqqqqqqqqqqqqqqqqqqqqqqqqqqqqqqqqqqqqqqqqqqqqqqqqqqqqqqq",
"qqqqqqqqqqqqqqqqqqqqqqqqqqqqqqqqqqqqqqqqqqqqqqqqqqqqqqqqqqqqqqqqqqqqqqqqqqqqqqqqqqqqqqqqqqqqqqqqqqqqqqqqqqqqqqqqqqqqqqqqqqqqqqqq",
"qqqqqqqqqqqqqqqqqqqqqqqqqqqqqqqqqqqqqqqqqqqqqqqqqqqqqqqqqqqqqqqqqqqqqqqqqqqqqqqqqqqqqqqqqqqqqqqqqqqqqqqqqqqqqqqqqqqqqqqqqqqqqqqq",
"qqqqqqqqqqqqqqqqqqqqqqqqqqqqqqqqqqqqqqqqqqqqqqqqqqqqqqqqqqqqqqqqqqqqqqqqqqqqqqqqqqqqqqqqqqqqqqqqqqqqqqqqqqqqqqqqqqqqqqqqqqqqqqqq",
"qqqqqqqqqqqqqqqqqqqqqqqqqqqqqqqqqqqqqqqqqqqqqqqqqqqqqqqqqqqqqqqqqqqqqqqqqqqqqqqqqqqqqqqqqqqqqqqqqqqqqqqqqqqqqqqqqqqqqqqqqqqqqqqq",
"qqqqqqqqqqqqqqqqqqqqqqqqqqqqqqqqqqqqqqqqqqqqqqqqqqqqqqqqqqqqqqqqqqqqqqqqqqqqqqqqqqqqqqqqqqqqqqqqqqqqqqqqqqqqqqqqqqqqqqqqqqqqqqqq",
"qqqqqqqqqqqqqqqqqqqqqqqqqqqqqqqqqqqqqqqqqqqqqqqqqqqqqqqqqqqqqqqqqqqqqqqqqqqqqqqqqqqqqqqqqqqqqqqqqqqqqqqqqqqqqqqqqqqqqqqqqqqqqqqq",
"qqqqqqqqqqqqqqqqqqqqqqqqqqqqqqqqqqqqqqqqqqqqqqqqqqqqqqqqqqqqqqqqqqqqqqqqqqqqqqqqqqqqqqqqqqqqqqqqqqqqqqqqqqqqqqqqqqqqqqqqqqqqqqqq",
"qqqqqqqqqqqqqqqqqqqqqqqqqqqqqqqqqqqqqqqqqqqqqqqqqqqqqqqqqqqqqqqqqqqqqqqqqqqqqqqqqqqqqqqqqqqqqqqqqqqqqqqqqqqqqqqqqqqqqqqqqqqqqqqq",
"qqqqqqqqqqqqqqqqqqqqqqqqqqqqqqqqqqqqqqqqqqqqqqqqqqqqqqqqqqqqqqqqqqqqqqqqqqqqqqqqqqqqqqqqqqqqqqqqqqqqqqqqqqqqqqqqqqqqqqqqqqqqqqqq",
"qqqqqqqqqqqqqqqqqqqqqqqqqqqqqqqqqqqqqqqqqqqqqqqqqqqqqqqqqqqqqqqqqqqqqqqqqqqqqqqqqqqqqqqqqqqqqqqqqqqqqqqqqqqqqqqqqqqqqqqqqqqqqqqq",
"qqqqqqqqqqqqqqqqqqqqqqqqqqqqqqqqqqqqqqqqqqqqqqqqqqqqqqqqqqqqqqqqqqqqqqqqqqqqqqqqqqqqqqqqqqqqqqqqqqqqqqqqqqqqqqqqqqqqqqqqqqqqqqqq",
"qqqqqqqqqqqqqqqqqqqqqqqqqqqqqqqqqqqqqqqqqqqqqqqqqqqqqqqqqqqqqqqqqqqqqqqqqqqqqqqqqqqqqqqqqqqqqqqqqqqqqqqqqqqqqqqqqqqqqqqqqqqqqqqq",
"qqqqqqqqqqqqqqqqqqqqqqqqqqqqqqqqqqqqqqqqqqqqqqqqqqqqqqqqqqqqqqqqqqqqqqqqqqqqqqqqqqqqqqqqqqqqqqqqqqqqqqqqqqqqqqqqqqqqqqqqqqqqqqqq",
"qqqqqqqqqqqqqqqqqqqqqqqqqqqqqqqqqqqqqqqqqqqqqqqqqqqqqqqqqqqqqqqqqqqqqqqqqqqqqqqqqqqqqqqqqqqqqqqqqqqqqqqqqqqqqqqqqqqqqqqqqqqqqqqq",
"qqqqqqqqqqqqqqqqqqqqqqqqqqqqqqqqqqqqqqqqqqqqqqqqqqqqqqqqqqqqqqqqqqqqqqqqqqqqqqqqqqqqqqqqqqqqqqqqqqqqqqqqqqqqqqqqqqqqqqqqqqqqqqqq",
"qqqqqqqqqqqqqqqqqqqqqqqqqqqqqqqqqqqqqqqqqqqqqqqqqqqqqqqqqqqqqqqqqqqqqqqqqqqqqqqqqqqqqqqqqqqqqqqqqqqqqqqqqqqqqqqqqqqqqqqqqqqqqqqq",
"qqqqqqqqqqqqqqqqqqqqqqqqqqqqqqqqqqqqqqqqqqqqqqqqqqqqqqqqqqqqqqqqqqqqqqqqqqqqqqqqqqqqqqqqqqqqqqqqqqqqqqqqqqqqqqqqqqqqqqqqqqqqqqqq",
"qqqqqqqqqqqqqqqqqqqqqqqqqqqqqqqqqqqqqqqqqqqqqqqqqqqqqqqqqqqqqqqqqqqqqqqqqqqqqqqqqqqqqqqqqqqqqqqqqqqqqqqqqqqqqqqqqqqqqqqqqqqqqqqq"
};
