/* XPM */
static char *bm9ydGhfdGVzdF9yZXNpemU_[] = {
/* columns rows colors chars-per-pixel */
"64 64 63 1 ",
"  c black",
". c #040404",
"X c gray3",
"o c #0C0C0C",
"O c #131313",
"+ c gray8",
"@ c #181818",
"# c gray12",
"$ c #202020",
"% c #272727",
"& c #282828",
"* c #2F2F2F",
"= c gray19",
"- c #373737",
"; c gray23",
": c #3F3F3F",
"> c #434343",
", c gray28",
"< c #484848",
"1 c gray31",
"2 c #535353",
"3 c gray34",
"4 c #5B5B5B",
"5 c #5F5F5F",
"6 c gray39",
"7 c #646464",
"8 c gray42",
"9 c #6F6F6F",
"0 c gray45",
"q c #777777",
"w c #7B7B7B",
"e c #808080",
"r c gray53",
"t c #8B8B8B",
"y c gray56",
"u c #939393",
"i c #979797",
"p c #9B9B9B",
"a c #9F9F9F",
"s c gray64",
"d c #A7A7A7",
"f c gray67",
"g c #AFAFAF",
"h c gray70",
"j c #B7B7B7",
"k c #BBBBBB",
"l c gray75",
"z c #C3C3C3",
"x c gray78",
"c c #CBCBCB",
"v c gray81",
"b c LightGray",
"n c #D7D7D7",
"m c gray86",
"M c #DFDFDF",
"N c gray89",
"B c #E7E7E7",
"V c gray92",
"C c #EFEFEF",
"Z c #F3F3F3",
"A c gray97",
"S c #FBFBFB",
"D c white",
/* pixels */
"DDDDDDDDDDDDDDDDDDDDDDDDDDDDDDDDDDDDDDDDDDDDDDDDDDDDDDDDDDDDDDDD",
"DDDDDDDDDDDDDDDDDDDDDDDDDDDDDDDDDDDDDDDDDDDDDDDDDDDDDDDDDDDDDDDD",
"DDDDDDDDDDDDDDDDDDDDDDDDDDDDDDDDDDDDDDDDDDDDDDDDDDDDDDDDDDDDDDDD",
"DDDDDDDDDDDDDDDDDDDDDDDDDDDDDDDDDDDDDDDDDDDDDDDDDDDDDDDDDDDDDDDD",
"DDDDDDDDDDDDDDDDDDDDDDDDDDDDDDDDDDDDDDDDDDDDDDDDDDDDDDDDDDDDDDDD",
"DDDDDDDDDDDDDDDDDDDDDDDDDDDDDDDDDDDDDDDDDDDDDDDDDDDDDDDDDDDDDDDD",
"DDDDDDDDDDDDDDDDDDDDDDDDDDDDDDDDDDDDDDDDDDDDDDDDDDDDDDDDDDDDDDDD",
"DDDDDDnkDDDDDDDDDDDDDDDDDA9hDDDDDDDDDDDDDDDDDDDDDDDDDDDDDDDDDDDD",
"DDDDD7..bDDDDDDDDDDDDDDDDz >DDDDDDDDDDDDDDDDDDDDDDDDDDDDDDDDDDDD",
"DDDDD$  6DDDDDDDDDDDDDDDDl :DDDDDDDDDDDDDDDDDDDDDDDDDDDDDDDDDDDD",
"DDDDD;  XBDDDDDDDDDDDDDDDl :DDDDDDDDDDDDZDDDDDDDDDDDDDDDDDDDDDDD",
"DDDDD4 + tDDDDDDDDDDDDDDDm #DDDDDDDDDDDCO#wADDDDDDDDDDDDDDDDDDDD",
"DDDDD5 2 @VDDDDDDDDDDDDDDM #DDDDDDDDDDDc.  -ZDDDDDDDDDDDDDDDDDDD",
"DDDDD5 a: <DDDDDDDDDDDDDDM #DDDDDDDDDDfO X# =ZDDDDDDDDDDDDDDDDDD",
"DDDDD5 aN+ rDDDDDDDDDDDDDA XDDDDDDDDS7  1BB& 2SDDDDDDDDDDDDDDDDD",
"DDDDD5 aDj .cDDDDDDDDDDDDDX ADDDDDDA: oiDDDmo rDDDDDDDDDDDDDDDDD",
"DDDDD5 aDD9 &ADDDDDDDDDDDD# MDDDDDC1 +cDDDDDk XvDDDDDDDDDDDDDDDD",
"DDDDD5 aDDA% wDDDDDDDDDDDD# MDDDDB% @nDDDDDDD7 @mDDDDDDDDDDDDDDD",
"DDDDD5 aDDDx..vDDDDDDDDDDD# MDDDZ% &NDDDDDDDDS1 %BDDDDDDDDDDDDDD",
"DDDDD5 aDDDD0 =SDDDDDDDDDD; lDDD7 %BDDDDDDDDDDA& >SDDDDDDDDDDDDD",
"DDDDD6 iDDDDA$ wDDDDDDDDDD5 aDDm. mDDDDDDDDDDDDB+ 8DDDDDDDDDDDDD",
"DDDDDe eDDDDDz..zDDDDDDDDD8 yDD0 6DDDDDDDDDDDDDDz. cDDDDDDDDDDDD",
"DDDDDe qDDDDDDq $ZDDDDDDDDe wDAo vDDDDDDDDDDDDDDDq :DDDDDDDDDDDD",
"DDDDDa 5DDDDDDS* qDDDDDDDDe eDs -DDDDDDDDDDDDDDDDCO zDDDDDDDDDDD",
"DDDDDa 5DDDDDDDc..mDDDDDDDw eD1 aDDDDDDDDDDDDDDDDDq 6DDDDDDDDDDD",
"DDDDDk ;DDDDDDDD7 >DDDDDDDe wDo NDDDDDDDDDDDDDDDDDn oADDDDDDDDDD",
"DDDDDB XADDDDDDDCO hDDDDDDe eV +DDDDDDDDDDDDDDDDDDD- iDDDDDDDDDD",
"DDDDDD* cDDDDDDDDy =DDDDDDe wn &DDDDDDDDDDDDDDDDDDDs ,DDDDDDDDDD",
"DDDDDD3 pDDDDDDDDS$ pDDDDDe el :DDDDDDDDDDDDDDDDDDDV XZDDDDDDDDD",
"DDDDDDp <DDDDDDDDDf oCDDDD5 pl :DDDDDDDDDDDDDDDDDDDD- lDDDDDDDDD",
"DDDDDDm @DDDDDDDDDD> yDDDD1 fl >DDDDDDDDDDDDDDDDDDDD7 uDDDDDDDDD",
"DDDDDDDO NDDDDDDDDDh @SDDD; zv &DDDDDDDDDDDDDDDDDDDDe eDDDDDDDDD",
"DDDDDDD, hDDDDDDDDDD& hDDD# MSo NDDDDDDDDDDDDDDDDDDDe eDDDDDDDDD",
"DDDDDDDq qDDDDDDDDDDr 8DDD# MD5 9DDDDDDDDDDDDDDDDDDDe eDDDDDDDDD",
"DDDDDDDl =DDDDDDDDDDk =DDDX ZDb oZDDDDDDDDDDDDDDDDDDe eDDDDDDDDD",
"DDDDDDDB +DDDDDDDDDDC ODDA XDDD: fDDDDDDDDDDDDDDDDDDe eDDDDDDDDD",
"DDDDDDDD+ BDDDDDDDDDDO nDM #DDDr -SDDDDDDDDDDDDDDDDDw eDDDDDDDDD",
"DDDDDDDD- zDDDDDDDDDD4 rDM #DDDA# iDDDDDDDDDDDDDDDDD9 yDDDDDDDDD",
"DDDDDDDD8 eDDDDDDDDDDs 2DM #DDDDs ovDDDDDDDDDDDDDDDD* zDDDDDDDDD",
"DDDDDDDDs 3DDDDDDDDDDl :Dz -DDDDD6 &ADDDDDDDDDDDDDDV XADDDDDDDDD",
"DDDDDDDDn +SDDDDDDDDDc &Dl :DDDDDA% wDDDDDDDDDDDDDDf ,DDDDDDDDDD",
"DDDDDDDDD$ lDDDDDDDDDB ODg 1DDDDDDx XBDDDDDDDDDDDDD8 eDDDDDDDDDD",
"DDDDDDDDD0 wDDDDDDDDDDO Bu 7DDDDDDD1 8DDDDDDDDDDDDC@ zDDDDDDDDDD",
"DDDDDDDDDf :DDDDDDDDDD= z0 tDDDDDDDb..vDDDDDDDDDDDe :DDDDDDDDDDD",
"DDDDDDDDDCX ZDDDDDDDDD6 i* lDDDDDDDD9 #VDDDDDDDDDBO zDDDDDDDDDDD",
"DDDDDDDDDD* cDDDDDDDDDe 1 oSDDDDDDDDA= ;MDDDDDDDA< >DDDDDDDDDDDD",
"DDDDDDDDDD3 sDDDDDDDDDp   9DDDDDDDDDDB@ OiDDDDDV& @NDDDDDDDDDDDD",
"DDDDDDDDDD6 iDDDDDDDDDN  #CDDDDDDDDDDDZ2  :slh4X %nDDDDDDDDDDDDD",
"DDDDDDDDDDj*cDDDDDDDDDDuwMDDDDDDDDDDDDDDdO      <BDDDDDDDDDDDDDD",
"DDDDDDDDDDDDDDDDDDDDDDDDDDDDDDDDDDDDDDDDDZieeetmDDDDDDDDDDDDDDDD",
"DDDDDDDDDDDDDDDDDDDDDDDDDDDDDDDDDDDDDDDDDDDDDDDDDDDDDDDDDDDDDDDD",
"DDDDDDDDDDDDDDDDDDDDDDDDDDDDDDDDDDDDDDDDDDDDDDDDDDDDDDDDDDDDDDDD",
"DDDDDDDDDDDDDDDDDDDDDDDDDDDDDDDDDDDDDDDDDDDDDDDDDDDDDDDDDDDDDDDD",
"DDDDDDDDDDDDDDDDDDDDDDDDDDDDDDDDDDDDDDDDDDDDDDDDDDDDDDDDDDDDDDDD",
"DDDDDDDDDDDDDDDDDDDDDDDDDDDDDDDDDDDDDDDDDDDDDDDDDDDDDDDDDDDDDDDD",
"DDDDDDDDDDDDDDDDDDDDDDDDDDDDDDDDDDDDDDDDDDDDDDDDDDDDDDDDDDDDDDDD",
"DDDDDDDDDDDDDDDDDDDDDDDDDDDDDDDDDDDDDDDDDDDDDDDDDDDDDDDDDDDDDDDD",
"DDDDDDDDDDDDDDDDDDDDDDDDDDDDDDDDDDDDDDDDDDDDDDDDDDDDDDDDDDDDDDDD",
"DDDDDDDDDDDDDDDDDDDDDDDDDDDDDDDDDDDDDDDDDDDDDDDDDDDDDDDDDDDDDDDD",
"DDDDDDDDDDDDDDDDDDDDDDDDDDDDDDDDDDDDDDDDDDDDDDDDDDDDDDDDDDDDDDDD",
"DDDDDDDDDDDDDDDDDDDDDDDDDDDDDDDDDDDDDDDDDDDDDDDDDDDDDDDDDDDDDDDD",
"DDDDDDDDDDDDDDDDDDDDDDDDDDDDDDDDDDDDDDDDDDDDDDDDDDDDDDDDDDDDDDDD",
"DDDDDDDDDDDDDDDDDDDDDDDDDDDDDDDDDDDDDDDDDDDDDDDDDDDDDDDDDDDDDDDD",
"DDDDDDDDDDDDDDDDDDDDDDDDDDDDDDDDDDDDDDDDDDDDDDDDDDDDDDDDDDDDDDDD"
};
