/* XPM */
static char *c291dGhfdGVzdF9yZXNpemU_[] = {
/* columns rows colors chars-per-pixel */
"64 64 62 1 ",
"  c black",
". c #040404",
"X c gray3",
"o c #0C0C0C",
"O c #101010",
"+ c gray8",
"@ c gray11",
"# c gray12",
"$ c #202020",
"% c gray14",
"& c gray17",
"* c #2F2F2F",
"= c gray20",
"- c #343434",
"; c gray23",
": c #3F3F3F",
"> c gray25",
", c gray28",
"< c #4B4B4B",
"1 c gray31",
"2 c #505050",
"3 c gray33",
"4 c #585858",
"5 c #5F5F5F",
"6 c #606060",
"7 c #646464",
"8 c gray42",
"9 c #6F6F6F",
"0 c gray45",
"q c #747474",
"w c #7B7B7B",
"e c gray50",
"r c #808080",
"t c gray53",
"y c gray56",
"u c #939393",
"i c #979797",
"p c #9B9B9B",
"a c #9F9F9F",
"s c #A7A7A7",
"d c gray67",
"f c #AFAFAF",
"g c gray70",
"h c #B7B7B7",
"j c #BBBBBB",
"k c gray75",
"l c #C3C3C3",
"z c gray78",
"x c #CBCBCB",
"c c gray81",
"v c LightGray",
"b c #D7D7D7",
"n c gray86",
"m c #DFDFDF",
"M c gray89",
"N c #E7E7E7",
"B c gray92",
"V c #EFEFEF",
"C c #F3F3F3",
"Z c gray97",
"A c #FBFBFB",
"S c white",
/* pixels */
"SSSSSSSSSSSSSSSSSSSSSSSSSSSSSSSSSSSSSSSSSSSSSSSSSSSSSSSSSSSSSSSS",
"SSSSSSSSSSSSSSSSSSSSSSSSSSSSSSSSSSSSSSSSSSSSSSSSSSSSSSSSSSSSSSSS",
"SSSSSSSSSSSSSSSSSSSSSSSSSSSSSSSSSSSSSSSSSSSSSSSSSSSSSSSSSSSSSSSS",
"SSSSSSSSSSSSSSSSSSSSSSSSSSSSSSSSSSSSSSSSSSSSSSSSSSSSSSSSSSSSSSSS",
"SSSSSSSSSSSSSSSSSSSSSSSSSSSSSSSSSSSSSSSSSSSSSSSSSSSSSSSSSSSSSSSS",
"SSSSSSSSSSSSSSSSSSSSSSSSSSSSSSSSSSSSSSSSSSSSSSSSSSSSSSSSSSSSSSSS",
"SSSSSSSSSSSSSSSSSSSCASSSSSSSSSSSSSSSSSSSSSSSSSSSSSSSSSSSSSSSSSSS",
"SSSSSSSSSSSSSSSSSBrX:SSSSSSSSSSSSSSSSSSSSSSSSSSSSSSSSSSSSSSSSSSS",
"SSSSSSSSSSSSSSSc6X  wSSSSSSSSSSSSSSSSSSSSSSSSSSSSSSSSSSSSSSSSSSS",
"SSSSSSSSSSSSSc2   1zSSSSSSSSSSSSSSSSSSSSSSSSSSSSSSSSSSSSSSSSSSSS",
"SSSSSSSSSSSV6  X9mSSSSSSSSSSSSSSSSSSSSSSSSSSSSSSSSSSSSSSSSSSSSSS",
"SSSSSSSSSSc$ X9NSSSSSSSSSSSSSSSSSSSSSSSSSSSSSSSSSSSSSSSSSSSSSSSS",
"SSSSSSSSSbo =mSSSSSSSSSSSSSSSSSSSSSSSSSSSSSSSSSSSSSSSSSSSSSSSSSS",
"SSSSSSSSC$ 2ASSSSSSSSSSSSSSSSSSSSSSSSSSSSSASSSSSSSSSSSSSSSSSSSSS",
"SSSSSSSS6 =ASSSSSSSSSSSSSSSSSSSSSSSSSSSSf<.-MSSSSSSSSSSSSSSSSSSS",
"SSSSSSSmX.bSSSSSSSSSSSSSSSSSSSSSSSSSSSv>    4CSSSSSSSSSSSSSSSSSS",
"SSSSSSSe 4SSSSSSSSSSSSSSSSSSSSSSSSSSZw. Oyy. >MSSSSSSSSSSSSSSSSS",
"SSSSSSS5 aSSSSSSSSSSSSSSSSSSSSSSSSSN* .8CSSv@ +nSSSSSSSSSSSSSSSS",
"SSSSSSS1 fSSSSSSSSSSSSSSSSSSSSSSSSA& $zSSSSSN; OzSSSSSSSSSSSSSSS",
"SSSSSSS, hSSSSSSSSSSSSSSSSSSSSSSSSr %BSSSSSSSC2 @bSSSSSSSSSSSSSS",
"SSSSSSS5 aSSSSSSSSSSSSSSSSSSSSSSSA+ kSSSSSSSSSA2 &ASSSSSSSSSSSSS",
"SSSSSSSw qSSSSSSSSSSSSSSSSSSSSSSSj %SSSSSSSSSSSA$ 4SSSSSSSSSSSSS",
"SSSSSSSj @NSSSSSSSSSSSSSSSSSSSSSS8 eSSSSSSSSSSSSno qSSSSSSSSSSSS",
"SSSSSSSS: >ASSSSSSSSSSSSSSSSSSSSS% zSSSSSSSSSSSSSf. gSSSSSSSSSSS",
"SSSSSSSSN@ 3ASSSSSSSSSSSSSSSSSSSm OASSSSSSSSSSSSSSy OmSSSSSSSSSS",
"SSSSSSSSSbo 3ZSSSSSSSSSSSSSSSSSSd <SSSSSSSSSSSSSSSS1 >SSSSSSSSSS",
"SSSSSSSSSSlo %cSSSSSSSSSSSSSSSSSa 5SSSSSSSSSSSSSSSSB+ aSSSSSSSSS",
"SSSSSSSSSSSc* .4smSSSSSSSSSSSSSSr rSSSSSSSSSSSSSSSSSs =SSSSSSSSS",
"SSSSSSSSSSSSZ9.   $5ibZSSSSSSSSSr eSSSSSSSSSSSSSSSSSS. SSSSSSSSS",
"SSSSSSSSSSSSSSMt1O    X3xSSSSSSS6 pSSSSSSSSSSSSSSSSSS- SSSSSSSSS",
"SSSSSSSSSSSSSSSSSScu3@   wASSSSSw tSSSSSSSSSSSSSSSSSS: SSSSSSSSS",
"SSSSSSSSSSSSSSSSSSSSSSNe. <ASSSSs >SSSSSSSSSSSSSSSSSS: SSSSSSSSS",
"SSSSSSSSSSSSSSSSSSSSSSSSz+ rSSSSCX.BSSSSSSSSSSSSSSSSS: SSSSSSSSS",
"SSSSSSSSSSSSSSSSSSSSSSSSSz oCSSSS1 pSSSSSSSSSSSSSSSSS> SSSSSSSSS",
"SSSSSSSSSSSSSSSSSSSSSSSSSS: dSSSSs $CSSSSSSSSSSSSSSSS- SSSSSSSSS",
"SSSSSSSSSSSSSSSSSSSSSSSSSSw rSSSSA- 9SSSSSSSSSSSSSSSN..SSSSSSSSS",
"SSSSSSSSSSSSSSSSSSSSSSSSSSu rSSSSSv..kSSSSSSSSSSSSSS4 5SSSSSSSSS",
"SSSSSSSSSSSSSSSSSSSSSSSSSSa rSSSSSSq ojSSSSSSSSSSSSa XmSSSSSSSSS",
"SSSSSSSSSSSSSSSSSSSSSSSSSSa rSSSSSSA4  >sZSSSSSSSVq  pSSSSSSSSSS",
"SSSSSSSSSSSSSSSSSSSSSSSSSSi eSSSSSSSSrX  O3raaap7O .iSSSSSSSSSSS",
"SSSSSSSSSSSSSSSSSSSSSSSSSS0 tSSSSSSSSSCi=         >cSSSSSSSSSSSS",
"SSSSSSSSSSSSSSSSSSSSSSSSSS- gSSSSSSSSSSSSnarrrrrtbSSSSSSSSSSSSSS",
"SSSSSSSSSSSSSSSSSSSSSSSSSb oZSSSSSSSSSSSSSSSSSSSSSSSSSSSSSSSSSSS",
"SSSSSSSSSSSSSSSSSSSSSSSSS4 6SSSSSSSSSSSSSSSSSSSSSSSSSSSSSSSSSSSS",
"SSSSSSSSSSSSSSSSSSSSSSSSj XmSSSSSSSSSSSSSSSSSSSSSSSSSSSSSSSSSSSS",
"SSSSSSSSSSSSSSSSSSSSSSAyX rSSSSSSSSSSSSSSSSSSSSSSSSSSSSSSSSSSSSS",
"SSSSSSShqgzmmmmmmmmnjt=  8SSSSSSSSSSSSSSSSSSSSSSSSSSSSSSSSSSSSSS",
"SSSSSSS&               @gSSSSSSSSSSSSSSSSSSSSSSSSSSSSSSSSSSSSSSS",
"SSSSSSSvq1=@$@$$@$$@>9sZSSSSSSSSSSSSSSSSSSSSSSSSSSSSSSSSSSSSSSSS",
"SSSSSSSSSSSSSSSSSSSSSSSSSSSSSSSSSSSSSSSSSSSSSSSSSSSSSSSSSSSSSSSS",
"SSSSSSSSSSSSSSSSSSSSSSSSSSSSSSSSSSSSSSSSSSSSSSSSSSSSSSSSSSSSSSSS",
"SSSSSSSSSSSSSSSSSSSSSSSSSSSSSSSSSSSSSSSSSSSSSSSSSSSSSSSSSSSSSSSS",
"SSSSSSSSSSSSSSSSSSSSSSSSSSSSSSSSSSSSSSSSSSSSSSSSSSSSSSSSSSSSSSSS",
"SSSSSSSSSSSSSSSSSSSSSSSSSSSSSSSSSSSSSSSSSSSSSSSSSSSSSSSSSSSSSSSS",
"SSSSSSSSSSSSSSSSSSSSSSSSSSSSSSSSSSSSSSSSSSSSSSSSSSSSSSSSSSSSSSSS",
"SSSSSSSSSSSSSSSSSSSSSSSSSSSSSSSSSSSSSSSSSSSSSSSSSSSSSSSSSSSSSSSS",
"SSSSSSSSSSSSSSSSSSSSSSSSSSSSSSSSSSSSSSSSSSSSSSSSSSSSSSSSSSSSSSSS",
"SSSSSSSSSSSSSSSSSSSSSSSSSSSSSSSSSSSSSSSSSSSSSSSSSSSSSSSSSSSSSSSS",
"SSSSSSSSSSSSSSSSSSSSSSSSSSSSSSSSSSSSSSSSSSSSSSSSSSSSSSSSSSSSSSSS",
"SSSSSSSSSSSSSSSSSSSSSSSSSSSSSSSSSSSSSSSSSSSSSSSSSSSSSSSSSSSSSSSS",
"SSSSSSSSSSSSSSSSSSSSSSSSSSSSSSSSSSSSSSSSSSSSSSSSSSSSSSSSSSSSSSSS",
"SSSSSSSSSSSSSSSSSSSSSSSSSSSSSSSSSSSSSSSSSSSSSSSSSSSSSSSSSSSSSSSS",
"SSSSSSSSSSSSSSSSSSSSSSSSSSSSSSSSSSSSSSSSSSSSSSSSSSSSSSSSSSSSSSSS",
"SSSSSSSSSSSSSSSSSSSSSSSSSSSSSSSSSSSSSSSSSSSSSSSSSSSSSSSSSSSSSSSS"
};
