/* XPM */
static char *_8e25c74dd7e47d0fe82971a19809d08IsypjXNWHTfFqF1y[] = {
/* columns rows colors chars-per-pixel */
"128 128 29 1 ",
"  c black",
". c gray6",
"X c #101010",
"o c gray12",
"O c #202020",
"+ c #2F2F2F",
"@ c gray19",
"# c #3F3F3F",
"$ c gray25",
"% c gray31",
"& c #505050",
"* c #5F5F5F",
"= c #606060",
"- c #6F6F6F",
"; c gray44",
": c gray50",
"> c #808080",
", c gray56",
"< c #909090",
"1 c #9F9F9F",
"2 c #A0A0A0",
"3 c #AFAFAF",
"4 c gray69",
"5 c gray75",
"6 c #C0C0C0",
"7 c gray81",
"8 c #DFDFDF",
"9 c #EFEFEF",
"0 c white",
/* pixels */
"00000000000000000000000000000000000000000000000000000000000000000000000000000000000000000000000000000000000000000000000000000000",
"00000000000000000000000000000000000000000000000000000000000000000000000000000000000000000000000000000000000000000000000000000000",
"00000000000000000000000000000000000000000000000000000000000000000000000000000000000000000000000000000000000000000000000000000000",
"00000000000000000000000000000000000000000000000000000000000000000000000000000000000000000000000000000000000000000000000000000000",
"00000000000000000000000000000000000000000000000000000000000000000000000000000000000000000000000000000000000000000000000000000000",
"00000000000000000000000000000000000000000000000000000000000000000000000000000000000000000000000000000000000000000000000000000000",
"00000000000000000000000000000000000000000000000000000000000000000000000000000000000000000000000000000000000000000000000000000000",
"00000000000000000000000000000000000000000000000000000000000000000000000000000000000000000000000000000000000000000000000000000000",
"00000000000000000000000000000000000000000000000000000000000000000000000000000000000000000000000000000000000000000000000000000000",
"00000000000000000000000000000000000000000000000000000000000000000000000000000000000000000000000000000000000000000000000000000000",
"00000000000000000000000000000000000000000000000000000000000000000000000000000000000000000000000000000000000000000000000000000000",
"00000000000000000000000000000000000000000000000000000000000000000000000000000000000000000000000000000000000000000000000000000000",
"00000000000000000000000000000000000000000000000000000000000000000000000000000000000000000000000000000000000000000000000000000000",
"00000000000000000000000000000000000000079000000000000000000000000000000000000000000000000000000000000000000000000000000000000000",
"00000000000000000000000000000000000005O  300000000000000000000000000000000000000000000000000000000000000000000000000000000000000",
"000000000000000000000000000000000004$    %00000000000000000000000000000000000000000000000000000000000000000000000000000000000000",
"000000000000000000000000000000009<O      :00000000000000000000000000000000000000000000000000000000000000000000000000000000000000",
"0000000000000000000000000000008=        -000000000000000000000000000000000000000000000000000000000000000000000000000000000000000",
"00000000000000000000000000008=        #80000000000000000000000000000000000000000000000000000000000000000000000000000000000000000",
"000000000000000000000000008=        *8000000000000000000000000000000000000000000000000000000000000000000000000000000000000000000",
"0000000000000000000000009;       o,900000000000000000000000000000000000000000000000000000000000000000000000000000000000000000000",
"000000000000000000000005O      o100000000000000000000000000000000000000000000000000000000000000000000000000000000000000000000000",
"0000000000000000000000>      o10000000000000000000000000000000000000000000000000000000000000000000000000000000000000000000000000",
"000000000000000000009&     o1000000000000000000000000000000000000000000000000000000000000000000000000000000000000000000000000000",
"00000000000000000009@     :00000000000000000000000000000000000000000000000000000000000000000000000000000000000000000000000000000",
"0000000000000000000=    .5000000000000000000000000000000000000000000000000000000000000000000000000000000000000000000000000000000",
"000000000000000000:    +90000000000000000000000000000000000000000000000000000000000000000000000000000000000000000000000000000000",
"000000000000000007    +900000000000000000000000000000000000000000000000000000000000090000000000000000000000000000000000000000000",
"00000000000000009O   .9000000000000000000000000000000000000000000000000000000000007& O$<9000000000000000000000000000000000000000",
"0000000000000000:    500000000000000000000000000000000000000000000000000000000002O      1000000000000000000000000000000000000000",
"0000000000000009O   -0000000000000000000000000000000000000000000000000000000005$        &900000000000000000000000000000000000000",
"000000000000000:   .900000000000000000000000000000000000000000000000000000009=           O70000000000000000000000000000000000000",
"000000000000000O   -00000000000000000000000000000000000000000000000000000002X      *-     O7000000000000000000000000000000000000",
"000000000000008   .9000000000000000000000000000000000000000000000000000008$      %8005o    X<00000000000000000000000000000000000",
"000000000000005   #000000000000000000000000000000000000000000000000000003X     +5000009*     =0000000000000000000000000000000000",
"000000000000005   #00000000000000000000000000000000000000000000000000001     .:000000000*     =000000000000000000000000000000000",
"000000000000005   #0000000000000000000000000000000000000000000000000001     #8000000000001.    $90000000000000000000000000000000",
"00000000000000:   :000000000000000000000000000000000000000000000000008X    ,000000000000007.    @0000000000000000000000000000000",
"00000000000000:   :00000000000000000000000000000000000000000000000000$    100000000000000007o    =000000000000000000000000000000",
"000000000000001   *00000000000000000000000000000000000000000000000005    10000000000000000009+    =00000000000000000000000000000",
"000000000000005   #0000000000000000000000000000000000000000000000000%   #000000000000000000009+    10000000000000000000000000000",
"000000000000005   #0000000000000000000000000000000000000000000000009    50000000000000000000009+   X9000000000000000000000000000",
"000000000000008   X0000000000000000000000000000000000000000000000001   o000000000000000000000009.   @900000000000000000000000000",
"000000000000000.   700000000000000000000000000000000000000000000000%   :000000000000000000000000:    $00000000000000000000000000",
"000000000000000%   *00000000000000000000000000000000000000000000000    70000000000000000000000000*    =0000000000000000000000000",
"0000000000000001    10000000000000000000000000000000000000000000003   o000000000000000000000000000#    -000000000000000000000000",
"0000000000000000+   X700000000000000000000000000000000000000000000-   -0000000000000000000000000008.    500000000000000000000000",
"00000000000000007    O90000000000000000000000000000000000000000000O   300000000000000000000000000007.   O90000000000000000000000",
"000000000000000001    @9000000000000000000000000000000000000000008    9000000000000000000000000000005    $0000000000000000000000",
"000000000000000000-    @900000000000000000000000000000000000000001   #0000000000000000000000000000000:    :000000000000000000000",
"0000000000000000000*    @9000000000000000000000000000000000000000-   :00000000000000000000000000000000#    700000000000000000000",
"00000000000000000000+    @800000000000000000000000000000000000000#   3000000000000000000000000000000009.   @00000000000000000000",
"000000000000000000009+     <0000000000000000000000000000000000000#   50000000000000000000000000000000003    :0000000000000000000",
"0000000000000000000009+     &900000000000000000000000000000000000#   50000000000000000000000000000000000%   X9000000000000000000",
"00000000000000000000009%     X>8000000000000000000000000000000000    000000000000000000000000000000000009.   ,000000000000000000",
"0000000000000000000000003.      @;2800000000000000000000000000000    0000000000000000000000000000000000001   #000000000000000000",
"00000000000000000000000008+         O=270000000000000000000000000    0000000000000000000000000000000000009    000000000000000000",
"000000000000000000000000000,.           X&26800000000000000000000    0000000000000000000000000000000000000o   000000000000000000",
"000000000000000000000000000091+              O;800000000000000007   +0000000000000000000000000000000000000*   000000000000000000",
"000000000000000000000000000000095:#             &8000000000000005   #0000000000000000000000000000000000000:   000000000000000000",
"0000000000000000000000000000000000005:#.          >00000000000008   O0000000000000000000000000000000000000:   000000000000000000",
"00000000000000000000000000000000000000007,##       =9000000000000    9000000000000000000000000000000000000:   000000000000000000",
"0000000000000000000000000000000000000000000091#     @800000000000+   3000000000000000000000000000000000000:   000000000000000000",
"000000000000000000000000000000000000000000000005.    O90000000000-   *000000000000000000000000000000000000:   000000000000000000",
"0000000000000000000000000000000000000000000000009+    &00000000007   X000000000000000000000000000000000000:   000000000000000000",
"00000000000000000000000000000000000000000000000009*    50000000000o   300000000000000000000000000000000000:   000000000000000000",
"000000000000000000000000000000000000000000000000000#   @0000000000-   *00000000000000000000000000000000000:   000000000000000000",
"0000000000000000000000000000000000000000000000000007    70000000007   X90000000000000000000000000000000000:   000000000000000000",
"0000000000000000000000000000000000000000000000000000%   -0000000000o   :0000000000000000000000000000000000:   000000000000000000",
"00000000000000000000000000000000000000000000000000003   #0000000000:    7000000000000000000000000000000000*   000000000000000000",
"00000000000000000000000000000000000000000000000000009    00000000009o   @000000000000000000000000000000000X   000000000000000000",
"00000000000000000000000000000000000000000000000000000    000000000005    ,00000000000000000000000000000001   .000000000000000000",
"00000000000000000000000000000000000000000000000000000.   000000000000%   X8000000000000000000000000000009X   :000000000000000000",
"00000000000000000000000000000000000000000000000000000#   0000000000009.   @90000000000000000000000000000-   .9000000000000000000",
"00000000000000000000000000000000000000000000000000000#   00000000000001    @9000000000000000000000000001    :0000000000000000000",
"00000000000000000000000000000000000000000000000000000#   00000000000000#    @70000000000000000000000007X   o00000000000000000000",
"00000000000000000000000000000000000000000000000000000#   000000000000009+     &4000000000000000000000<     700000000000000000000",
"00000000000000000000000000000000000000000000000000000#   0000000000000009#      O>800000000000000005$     1000000000000000000000",
"00000000000000000000000000000000000000000000000000000#   00000000000000000*        $<6000000000092$      10000000000000000000000",
"00000000000000000000000000000000000000000000000000000O   0000000000000000003o          X$$$$$$$@       .300000000000000000000000",
"00000000000000000000000000000000000000000000000000000    000000000000000000007*.                      *8000000000000000000000000",
"00000000000000000000000000000000000000000000000000007   .000000000000000000000091+                  #700000000000000000000000000",
"0000000000000000000000000000000000000000000000000000,   #00000000000000000000000008,%+           o-80000000000000000000000000000",
"0000000000000000000000000000000000000000000000000000%   ,00000000000000000000000000000000000000000000000000000000000000000000000",
"0000000000000000000000000000000000000000000000000008    800000000000000000000000000000000000000000000000000000000000000000000000",
"000000000000000000000000000000000000000000000000000:   +000000000000000000000000000000000000000000000000000000000000000000000000",
"000000000000000000000000000000000000000000000000009X   ,000000000000000000000000000000000000000000000000000000000000000000000000",
"00000000000000000000000000000000000000000000000000-   .9000000000000000000000000000000000000000000000000000000000000000000000000",
"00000000000000000000000000000000000000000000000007    :0000000000000000000000000000000000000000000000000000000000000000000000000",
"0000000000000000000000000000000000000000000000009@   o90000000000000000000000000000000000000000000000000000000000000000000000000",
"000000000000000000000000000000000000000000000007O    300000000000000000000000000000000000000000000000000000000000000000000000000",
"0000000000000000000000000000000000000000000009;     *000000000000000000000000000000000000000000000000000000000000000000000000000",
"000000000000000070000000000000000000000000092O     #0000000000000000000000000000000000000000000000000000000000000000000000000000",
"000000000000007X X$>>2666666666666666664>=@       -00000000000000000000000000000000000000000000000000000000000000000000000000000",
"00000000000000%                                 o5000000000000000000000000000000000000000000000000000000000000000000000000000000",
"00000000000000*                                :90000000000000000000000000000000000000000000000000000000000000000000000000000000",
"000000000000009*.                           +-8000000000000000000000000000000000000000000000000000000000000000000000000000000000",
"0000000000000000073::%##################::59000000000000000000000000000000000000000000000000000000000000000000000000000000000000",
"00000000000000000000000000000000000000000000000000000000000000000000000000000000000000000000000000000000000000000000000000000000",
"00000000000000000000000000000000000000000000000000000000000000000000000000000000000000000000000000000000000000000000000000000000",
"00000000000000000000000000000000000000000000000000000000000000000000000000000000000000000000000000000000000000000000000000000000",
"00000000000000000000000000000000000000000000000000000000000000000000000000000000000000000000000000000000000000000000000000000000",
"00000000000000000000000000000000000000000000000000000000000000000000000000000000000000000000000000000000000000000000000000000000",
"00000000000000000000000000000000000000000000000000000000000000000000000000000000000000000000000000000000000000000000000000000000",
"00000000000000000000000000000000000000000000000000000000000000000000000000000000000000000000000000000000000000000000000000000000",
"00000000000000000000000000000000000000000000000000000000000000000000000000000000000000000000000000000000000000000000000000000000",
"00000000000000000000000000000000000000000000000000000000000000000000000000000000000000000000000000000000000000000000000000000000",
"00000000000000000000000000000000000000000000000000000000000000000000000000000000000000000000000000000000000000000000000000000000",
"00000000000000000000000000000000000000000000000000000000000000000000000000000000000000000000000000000000000000000000000000000000",
"00000000000000000000000000000000000000000000000000000000000000000000000000000000000000000000000000000000000000000000000000000000",
"00000000000000000000000000000000000000000000000000000000000000000000000000000000000000000000000000000000000000000000000000000000",
"00000000000000000000000000000000000000000000000000000000000000000000000000000000000000000000000000000000000000000000000000000000",
"00000000000000000000000000000000000000000000000000000000000000000000000000000000000000000000000000000000000000000000000000000000",
"00000000000000000000000000000000000000000000000000000000000000000000000000000000000000000000000000000000000000000000000000000000",
"00000000000000000000000000000000000000000000000000000000000000000000000000000000000000000000000000000000000000000000000000000000",
"00000000000000000000000000000000000000000000000000000000000000000000000000000000000000000000000000000000000000000000000000000000",
"00000000000000000000000000000000000000000000000000000000000000000000000000000000000000000000000000000000000000000000000000000000",
"00000000000000000000000000000000000000000000000000000000000000000000000000000000000000000000000000000000000000000000000000000000",
"00000000000000000000000000000000000000000000000000000000000000000000000000000000000000000000000000000000000000000000000000000000",
"00000000000000000000000000000000000000000000000000000000000000000000000000000000000000000000000000000000000000000000000000000000",
"00000000000000000000000000000000000000000000000000000000000000000000000000000000000000000000000000000000000000000000000000000000",
"00000000000000000000000000000000000000000000000000000000000000000000000000000000000000000000000000000000000000000000000000000000",
"00000000000000000000000000000000000000000000000000000000000000000000000000000000000000000000000000000000000000000000000000000000",
"00000000000000000000000000000000000000000000000000000000000000000000000000000000000000000000000000000000000000000000000000000000",
"00000000000000000000000000000000000000000000000000000000000000000000000000000000000000000000000000000000000000000000000000000000",
"00000000000000000000000000000000000000000000000000000000000000000000000000000000000000000000000000000000000000000000000000000000",
"00000000000000000000000000000000000000000000000000000000000000000000000000000000000000000000000000000000000000000000000000000000",
"00000000000000000000000000000000000000000000000000000000000000000000000000000000000000000000000000000000000000000000000000000000"
};
