/* XPM */
static char *_f756d2abe33423be7e4820234d32be741aFTXU7wjPrQitN[] = {
/* columns rows colors chars-per-pixel */
"128 128 42 1 ",
"  c black",
". c gray6",
"X c #101010",
"o c #151515",
"O c #1B1B1B",
"+ c gray12",
"@ c #202020",
"# c gray17",
"$ c #2F2F2F",
"% c gray19",
"& c #353535",
"* c #3F3F3F",
"= c gray25",
"- c gray31",
"; c #505050",
": c #5F5F5F",
"> c #606060",
", c #6A6A6A",
"< c #6F6F6F",
"1 c gray44",
"2 c gray50",
"3 c #808080",
"4 c gray55",
"5 c gray56",
"6 c #929292",
"7 c #9F9F9F",
"8 c #A0A0A0",
"9 c gray65",
"0 c #AAAAAA",
"q c #AFAFAF",
"w c gray69",
"e c gray75",
"r c #C0C0C0",
"t c gray78",
"y c gray81",
"u c #D5D5D5",
"i c gray85",
"p c #DFDFDF",
"a c #E4E4E4",
"s c #EFEFEF",
"d c gray98",
"f c white",
/* pixels */
"ffffffffffffffffffffffffffffffffffffffffffffffffffffffffffffffffffffffffffffffffffffffffffffffffffffffffffffffffffffffffffffffff",
"ffffffffffffffffffffffffffffffffffffffffffffffffffffffffffffffffffffffffffffffffffffffffffffffffffffffffffffffffffffffffffffffff",
"ffffffffffffffffffffffffffffffffffffffffffffffffffffffffffffffffffffffffffffffffffffffffffffffffffffffffffffffffffffffffffffffff",
"ffffffffffffffffffffffffffffffffffffffffffffffffffffffffffffffffffffffffffffffffffffffffffffffffffffffffffffffffffffffffffffffff",
"ffffffffffffffffffffffffffffffffffffffffffffffffffffffffffffffffffffffffffffffffffffffffffffffffffffffffffffffffffffffffffffffff",
"ffffffffffffffffffffffffffffffffffffffffffffffffffffffffffffffffffffffffffffffffffffffffffffffffffffffffffffffffffffffffffffffff",
"ffffffffffffffffffffffffffffffffffffffffffffffffffffffffffffffffffffffffffffffffffffffffffffffffffffffffffffffffffffffffffffffff",
"ffffffffffffffffffffffffffffffffffffffffffffffffffffffffffffffffffffffffffffffffffffffffffffffffffffffffffffffffffffffffffffffff",
"ffffffffffffffffffffffffffffffffffffffffffffffffffffffffffffffffffffffffffffffffffffffffffffffffffffffffffffffffffffffffffffffff",
"ffffffffffffffffffffffffffffffffffffffffffffffffffffffffffffffffffffffffffffffffffffffffffffffffffffffffffffffffffffffffffffffff",
"ffffffffffffffffffffffffffffffffffffffffffffffffffffffffffffffffffffffffffffffffffffffffffffffffffffffffffffffffffffffffffffffff",
"ffffffffffffffffffffffffffffffffffffffffffffffffffffffffffffffffffffffffffffffffffffffffffffffffffffffffffffffffffffffffffffffff",
"ffffffffffffffffffffffffffffffffffffffffffffffffffffffffffffffffffffffffffffffffffffffffffffffffffffffffffffffffffffffffffffffff",
"ffffffffffffffffffffffffffffffffffffffffffffffffffffffffffffffffffffffffffffffffffffffffffffffffffffffffffffffffffffffffffffffff",
"ffffffffffffffffffffffffffffffffffffffffffffffffffffffffffffffffffffffffffffffffffffffffffffffffffffffffffffffffffffffffffffffff",
"ffffffffffffffffffffffffffffffffffffffffffffffffffffffffffffffffffffffffffffffffffffffffffffffffffffffffffffffffffffffffffffffff",
"ffffffffffffffffffffffffffffffffffffffffffffffffffffffffffffffffffffffffffffffffffffffffffffffffffffffffffffffffffffffffffffffff",
"ffffffffffffffffffffffffffffffffffffffffffffffffffffffffffffffffffffffffffffffffffffffffffffffffffffffffffffffffffffffffffffffff",
"ffffffffffffffffffffffffffffffffffffffffffffffffffffffffffffffffffffffffffffffffffffffffffffffffffffffffffffffffffffffffffffffff",
"ffffffffffffffffffffffffffffffffffffffffffffffffffffffffffffffffffffffffffffffffffffffseeeufffffffffffffffffffffffffffffffffffff",
"fffffffffffffffffffffffffffffffffffffffffffffffffffffffffffffffffffffffffffffffffffff9o         o#=12220eiffffffffffffffffffffff",
"fffffffffffffffffffffffffffffffffffffffffffffffffffffffffffffffffffffffffffffffffffff>                        ===1sfffffffffffff",
"fffffffffffffffffffffffffffffffffffffffffffffffffffffffffffffffffffffffffffffffffffff6                            %fffffffffffff",
"fffffffffffffffffffffffffffffffffffffffffffffffffffffffffffffffffffffffffffffffffffffy   $O                        fffffffffffff",
"fffffffffffffffffffffffffffffffffffffffffffffffffffffffffffffffffffffffffffffffffffff2   2fffffdaue9221==O        2fffffffffffff",
"fffffffffffffffffffffffffffffffffffffffffffffffffffffffffffffffffffffffffffffffffffff2   2ffffffffffffffffffffffffffffffffffffff",
"fffffffffffffffffffffffffffffffffffffffffffffffffffffffffffffffffffffffffffffffffffff2   2ffffffffffffffffffffffffffffffffffffff",
"fffffffffffffffffffffffffffffffffffffffffffffffffffffffffffffffffffffffffffffffffffff2   2ffffffffffffffffffffffffffffffffffffff",
"ffffffffffffffffffffffffffffffffffffffffffffffffffffffffffffffffffq1qffffffffffffffff2   2ffffffffffffffffffffffffffffffffffffff",
"fffffffffffffffffffffffffffffffffffffffffffffffffffffffffffffffffe   ffffffffffffffff2   2ffffffffffffffffffffffffffffffffffffff",
"fffffffffffffffffffffffffffffffffffffffffffffffffffffffffffffffff2   ffffffffffffffff2   2ffffffffffffffffffffffffffffffffffffff",
"fffffffffypffffffffffffffffffffffffffffffffffffffffffffffffffffff:   ffffffffffffffff2   2ffffffffffffffffffffffffffffffffffffff",
"ffffffff>  qfffffffffffffffffffffffffffffffffffffffffffffffffffff@   ffffffffffffffff:   5ffffffffffffffffffffffffffffffffffffff",
"fffffffy   Xsfffffffffffffffffffffffffffffffffffffffffffffffffffp    ffffffffffffffff*   effffffffffffffffffffffffffffffffffffff",
"fffffffs.   5fffffffffffffffffffffffffffffffffffffffffffffffffff7   *ffffffffffffffff*   effffffffffffffffffffffffffffffffffffff",
"ffffffff2   @fffffffffffffffffffffffffffffffffffffffffffffffffff:   2ffffffffffffffff*   effffffffffffffffffffffffffffffffffffff",
"ffffffffs    qffffffffffffffffffffffffffffffffffffffffffffffffff%   effffffffffffffff*   effffffffffffffffffffffffffffffffffffff",
"fffffffff:   -ffffffffffffffffffffffffffffffffffffffffffffffffff    sffffffffffffffff*   effffffffffffffffffffffffffffffffffffff",
"fffffffffy    pffffffffffffffffffffffffffffffffffffffffffffffffq   +fffffffffffffffff*   effffffffffffffffffffffffffffffffffffff",
"ffffffffff$   5ffffffffffffffffffffffffffffffffffffffffffffffff:   <fffffffffffffffff*   effffffffffffffffffffffffffffffffffffff",
"ffffffffff5   -ffffffffffffffffffffffffffffffffffffffffffffffffX   qfffffffffffffffff*   effffffffffffffffffffffffffffffffffffff",
"ffffffffffe   @fffffffffffffffffffffffffffffffffffffffffffffffy   .ffffffffffffffffff*   effffffffffffffffffffffffffffffffffffff",
"fffffffffff    sffffffffffffffffffffffffffffffffffffffffffffff<   :ffffffffffffffffff*   effffffffffffffffffffffffffffffffffffff",
"fffffffffff$   7ffffffffffffffffffffffffffffffffffffffffffffff%   7ffffffffffffffffff*   effffffffffffffffffffffffffffffffffffff",
"fffffffffff2   -fffffffffffffffffffffffffffffffffffffffffffffp    sffffffffffffffffff*   effffffffffffffffffffffffffffffffffffff",
"fffffffffffy    sffffffffffffffffffffffffffffffffffffffffffff7   *fffffffffffffffffff*   effffffffffffffffffffffffffffffffffffff",
"ffffffffffff+   7fffffffffffffffffffsffffffffffffffffffffffff-   5fffffffffffffffffff*   effffffffffffffffffffffffffffffffffffff",
"ffffffffffff5   %ffffffffffffffffff1 =yffffffffffffffffffffff@   efffffffffffffffffff*   effffffffffffffffffffffffffffffffffffff",
"ffffffffffffp    pffffffffffffffffy   %fffffffffffffffffffffs    ffffffffffffffffffff*   effffffffffffffffffffffffffffffffffffff",
"fffffffffffff*   5ffffffffffffffffe    5ffffffffffffffffffffq   *ffffffffffffffffffff*   effffffffffffffffffffffffffffffffffffff",
"fffffffffffff5   -ffffffffffffffffe    @ffffffffffffffffffff<   <ffffffffffffffffffff*   effffffffffffffffffffffffffffffffffffff",
"fffffffffffffy   Xffffffffffffffff5     qfffffffffffffffffff%   qffffffffffffffffffff*   effffffffffffffffffffffffffffffffffffff",
"ffffffffffffff.   efffffffffffffff2     :ffffffffffffffffffs    sffffffffffffffffffff*   effffffffffffffffffffffffffffffffffffff",
"ffffffffffffff:   <fffffffffffffff:     Xffffffffffffffffffq   $fffffffffffffffffffff*   effffffffffffffffffffffffffffffffffffff",
"ffffffffffffffq   @fffffffffffffff*      efffffffffffffffff:   <fffffffffffffffffffff*   :2222222225efffffffffffffffffffffffffff",
"fffffffffffffff    yffffffffffffff*      2fffffffffffffffff@   efffffffffffffffffffff*               &,7ifffffffffffffffffffffff",
"fffffffffffffff-   <ffffffffffffff*      *ffffffffffffffffp    ffffffffffffffffffffff*                  *dffffffffffffffffffffff",
"fffffffffffffff7   @ffffffffffffffX       ffffffffffffffff7   *ffffffffffffffffffffff*                   effffffffffffffffffffff",
"fffffffffffffffs    yfffffffffffff    +   efffffffffffffff:   2ffffffffffffffffffffff*   :22222222e=    .effffffffffffffffffffff",
"ffffffffffffffff-   5ffffffffffffy   +:   :fffffffffffffff@   effffffffffffffffffffff*   efffffffffff022tfffffffffffffffffffffff",
"ffffffffffffffff5   %ffffffffffffe   *q   Xsfffffffffffffs    fffffffffffffffffffffff*   effffffffffffffffffffffffffffffffffffff",
"ffffffffffffffffp    pfffffffffffe   *f.   7fffffffffffffe   $fffffffffffffffffffffff*   effffffffffffffffffffffffffffffffffffff",
"fffffffffffffffff*   :fffffffffffe   *f2   %fffffffffffff2   :fffffffffffffffffffffff*   effffffffffffffffffffffffffffffffffffff",
"fffffffffffffffff7    sffffffffffe   *fp    yffffffffffff-   5fffffffffffffffffffffff*   effffffffffffffffffffffffffffffffffffff",
"ffffffffffffffffff+   2ffffffffff5   :ff-   :ffffffffffff%   efffffffffffffffffffffff*   effffffffffffffffffffffffffffffffffffff",
"ffffffffffffffffff7   @ffffffffff2   2ffq   Xffffffffffff    ffffffffffffffffffffffff*   effffffffffffffffffffffffffffffffffffff",
"ffffffffffffffffffs.   qfffffffff2   2fff+   7ffffffffffe   +ffffffffffffffffffffffff*   effffffffffffffffffffffffffffffffffffff",
"fffffffffffffffffff:   :fffffffff*   qfff<   =ffffffffff7   -ffffffffffffffffffffffff*   effffffffffffffffffffffffffffffffffffff",
"fffffffffffffffffffe   @fffffffff*   efffp    pfffffffff2   2ffffffffffffffffffffffff*   effffffffffffffffffffffffffffffffffffff",
"ffffffffffffffffffff.   qffffffff*   effff*   <fffffffff*   qffffffffffffffffffffffff*   effffffffffffffffffffffffffffffffffffff",
"ffffffffffffffffffff:   :ffffffff    sffff7   Xsffffffff%   effffffffffffffffffffffff*   effffffffffffffffffffffffffffffffffffff",
"ffffffffffffffffffffy   Xffffffff    ffffff.   7ffffffff    fffffffffffffffffffffffff*   effffffffffffffffffffffffffffffffffffff",
"fffffffffffffffffffff.   yffffffs    ffffff2   @fffffffp   .fffffffffffffffffffffffff*   effffffffffffffffffffffffffffffffffffff",
"fffffffffffffffffffff:   :ffffffe   *ffffffs    7ffffffe   *fffffffffffffffffffffffff*   effffffffffffffffffffffffffffffffffffff",
"fffffffffffffffffffffe    pfffffq   *fffffff:   @ffffff5   :fffffffffffffffffffffffff*   effffffffffffffffffffffffffffffffffffff",
"ffffffffffffffffffffff+   2fffff2   2fffffffp    7fffff2   2fffffffffffffffffffffffff*   effffffffffffffffffffffffffffffffffffff",
"ffffffffffffffffffffff7   @fffff*   7ffffffff:   @fffff-   7fffffffffffffffffffffffff*   effffffffffffffffffffffffffffffffffffff",
"ffffffffffffffffffffffs.   effffX   pffffffffp    effff*   efffffffffffffffffffffffff<   2ffffffffffffffffffffffffffffffffffffff",
"fffffffffffffffffffffff:   =fffy   .ffffffffff:   -ffff    sfffffffffffffffffffffffff2   <ffffffffffffffffffffffffffffffffffffff",
"fffffffffffffffffffffffe    pffe   *ffffffffffe    pffs    ffffffffffffffffffffffffffe   *ffffffffffffffffffffffffffffffffffffff",
"ffffffffffffffffffffffff$   7ffe   *fffffffffff*   :ffe   *ffffffffffffffffffffffffffe   *ffffffffffffffffffffffffffffffffffffff",
"ffffffffffffffffffffffff2   :ffe   *fffffffffff7   Xsf2   :ffffffffffffffffffffffffffe   *ffffffffffffffffffffffffffffffffffffff",
"ffffffffffffffffffffffffe   @ff5   :ffffffffffff+   2f:   5ffffffffffffffffffffffffffe   *ffffffffffffffffffffffffffffffffffffff",
"fffffffffffffffffffffffff    pf2   2ffffffffffff5   @fX   yffffffffffffffffffffffffffe   *ffffffffffffffffffffffffffffffffffffff",
"fffffffffffffffffffffffff*   5f<   5ffffffffffffs.   -   .fffffffffffffffffffffffffffy   @ffffffffffffffffffffffffffffffffffffff",
"fffffffffffffffffffffffff5   %f*   efffffffffffff:       :ffffffffffffffffffffffffffff    ffffffffffffffffffffprrw3;X       @pff",
"fffffffffffffffffffffffffp    y    sfffffffffffffp       yffffffffffffffffffffffffffff.   sffffffffffffffp81=                5ff",
"ffffffffffffffffffffffffff*   -   $fffffffffffffff*     *fffffffffffffffffffffffffffff*   efffffffffy61=X                    7ff",
"ffffffffffffffffffffffffff:       <fffffffffffffff7     pfffffffffffffffffffffffffffff*   efffffy5;X                       .:sff",
"ffffffffffffffffffffffffffe       pfffffffffffffffs+  .7ffffffffffffffffffffffffffffff*   6fsw>X              .**-27yfffffffffff",
"fffffffffffffffffffffffffff+     :fffffffffffffffffy:<pfffffffffffffffffffffffffffffff*                  .*2qpffffffffffffffffff",
"fffffffffffffffffffffffffff<     pffffffffffffffffffffffffffffffffffffffffffffffffffff2             .-2epfffffffffffffffffffffff",
"fffffffffffffffffffffffffffp    2fffffffffffffffffffffffffffffffffffffffffffffffffffffp.        .-5yffffffffffffffffffffffffffff",
"ffffffffffffffffffffffffffff:  :fffffffffffffffffffffffffffffffffffffffffffffffffffffffs5*$  *<effffffffffffffffffffffffffffffff",
"ffffffffffffffffffffffffffffffffffffffffffffffffffffffffffffffffffffffffffffffffffffffffffffffffffffffffffffffffffffffffffffffff",
"ffffffffffffffffffffffffffffffffffffffffffffffffffffffffffffffffffffffffffffffffffffffffffffffffffffffffffffffffffffffffffffffff",
"ffffffffffffffffffffffffffffffffffffffffffffffffffffffffffffffffffffffffffffffffffffffffffffffffffffffffffffffffffffffffffffffff",
"ffffffffffffffffffffffffffffffffffffffffffffffffffffffffffffffffffffffffffffffffffffffffffffffffffffffffffffffffffffffffffffffff",
"ffffffffffffffffffffffffffffffffffffffffffffffffffffffffffffffffffffffffffffffffffffffffffffffffffffffffffffffffffffffffffffffff",
"ffffffffffffffffffffffffffffffffffffffffffffffffffffffffffffffffffffffffffffffffffffffffffffffffffffffffffffffffffffffffffffffff",
"ffffffffffffffffffffffffffffffffffffffffffffffffffffffffffffffffffffffffffffffffffffffffffffffffffffffffffffffffffffffffffffffff",
"ffffffffffffffffffffffffffffffffffffffffffffffffffffffffffffffffffffffffffffffffffffffffffffffffffffffffffffffffffffffffffffffff",
"ffffffffffffffffffffffffffffffffffffffffffffffffffffffffffffffffffffffffffffffffffffffffffffffffffffffffffffffffffffffffffffffff",
"ffffffffffffffffffffffffffffffffffffffffffffffffffffffffffffffffffffffffffffffffffffffffffffffffffffffffffffffffffffffffffffffff",
"ffffffffffffffffffffffffffffffffffffffffffffffffffffffffffffffffffffffffffffffffffffffffffffffffffffffffffffffffffffffffffffffff",
"ffffffffffffffffffffffffffffffffffffffffffffffffffffffffffffffffffffffffffffffffffffffffffffffffffffffffffffffffffffffffffffffff",
"ffffffffffffffffffffffffffffffffffffffffffffffffffffffffffffffffffffffffffffffffffffffffffffffffffffffffffffffffffffffffffffffff",
"ffffffffffffffffffffffffffffffffffffffffffffffffffffffffffffffffffffffffffffffffffffffffffffffffffffffffffffffffffffffffffffffff",
"ffffffffffffffffffffffffffffffffffffffffffffffffffffffffffffffffffffffffffffffffffffffffffffffffffffffffffffffffffffffffffffffff",
"ffffffffffffffffffffffffffffffffffffffffffffffffffffffffffffffffffffffffffffffffffffffffffffffffffffffffffffffffffffffffffffffff",
"ffffffffffffffffffffffffffffffffffffffffffffffffffffffffffffffffffffffffffffffffffffffffffffffffffffffffffffffffffffffffffffffff",
"ffffffffffffffffffffffffffffffffffffffffffffffffffffffffffffffffffffffffffffffffffffffffffffffffffffffffffffffffffffffffffffffff",
"ffffffffffffffffffffffffffffffffffffffffffffffffffffffffffffffffffffffffffffffffffffffffffffffffffffffffffffffffffffffffffffffff",
"ffffffffffffffffffffffffffffffffffffffffffffffffffffffffffffffffffffffffffffffffffffffffffffffffffffffffffffffffffffffffffffffff",
"ffffffffffffffffffffffffffffffffffffffffffffffffffffffffffffffffffffffffffffffffffffffffffffffffffffffffffffffffffffffffffffffff",
"ffffffffffffffffffffffffffffffffffffffffffffffffffffffffffffffffffffffffffffffffffffffffffffffffffffffffffffffffffffffffffffffff",
"ffffffffffffffffffffffffffffffffffffffffffffffffffffffffffffffffffffffffffffffffffffffffffffffffffffffffffffffffffffffffffffffff",
"ffffffffffffffffffffffffffffffffffffffffffffffffffffffffffffffffffffffffffffffffffffffffffffffffffffffffffffffffffffffffffffffff",
"ffffffffffffffffffffffffffffffffffffffffffffffffffffffffffffffffffffffffffffffffffffffffffffffffffffffffffffffffffffffffffffffff",
"ffffffffffffffffffffffffffffffffffffffffffffffffffffffffffffffffffffffffffffffffffffffffffffffffffffffffffffffffffffffffffffffff",
"ffffffffffffffffffffffffffffffffffffffffffffffffffffffffffffffffffffffffffffffffffffffffffffffffffffffffffffffffffffffffffffffff",
"ffffffffffffffffffffffffffffffffffffffffffffffffffffffffffffffffffffffffffffffffffffffffffffffffffffffffffffffffffffffffffffffff",
"ffffffffffffffffffffffffffffffffffffffffffffffffffffffffffffffffffffffffffffffffffffffffffffffffffffffffffffffffffffffffffffffff",
"ffffffffffffffffffffffffffffffffffffffffffffffffffffffffffffffffffffffffffffffffffffffffffffffffffffffffffffffffffffffffffffffff",
"ffffffffffffffffffffffffffffffffffffffffffffffffffffffffffffffffffffffffffffffffffffffffffffffffffffffffffffffffffffffffffffffff",
"ffffffffffffffffffffffffffffffffffffffffffffffffffffffffffffffffffffffffffffffffffffffffffffffffffffffffffffffffffffffffffffffff",
"ffffffffffffffffffffffffffffffffffffffffffffffffffffffffffffffffffffffffffffffffffffffffffffffffffffffffffffffffffffffffffffffff",
"ffffffffffffffffffffffffffffffffffffffffffffffffffffffffffffffffffffffffffffffffffffffffffffffffffffffffffffffffffffffffffffffff"
};
