/* XPM */
static char *d2VzdF90ZXN0X3Jlc2l6ZQ__[] = {
/* columns rows colors chars-per-pixel */
"64 64 63 1 ",
"  c black",
". c #040404",
"X c gray3",
"o c #0C0C0C",
"O c #101010",
"+ c gray8",
"@ c #181818",
"# c gray12",
"$ c #232323",
"% c gray14",
"& c gray17",
"* c #2F2F2F",
"= c gray19",
"- c #373737",
"; c gray23",
": c #3F3F3F",
"> c #434343",
", c gray28",
"< c #4B4B4B",
"1 c gray31",
"2 c #535353",
"3 c gray34",
"4 c #5B5B5B",
"5 c #5F5F5F",
"6 c gray39",
"7 c #676767",
"8 c gray42",
"9 c #6F6F6F",
"0 c gray45",
"q c #777777",
"w c #7B7B7B",
"e c #7E7E7E",
"r c #838383",
"t c gray53",
"y c #8B8B8B",
"u c gray56",
"i c #939393",
"p c #9B9B9B",
"a c #9F9F9F",
"s c gray64",
"d c #A7A7A7",
"f c gray67",
"g c #ACACAC",
"h c gray70",
"j c #B7B7B7",
"k c #BBBBBB",
"l c gray75",
"z c #C1C1C1",
"x c gray78",
"c c #CBCBCB",
"v c gray81",
"b c LightGray",
"n c #D7D7D7",
"m c gray86",
"M c #DFDFDF",
"N c gray89",
"B c #E7E7E7",
"V c gray92",
"C c #EFEFEF",
"Z c #F3F3F3",
"A c gray97",
"S c #FBFBFB",
"D c white",
/* pixels */
"DDDDDDDDDDDDDDDDDDDDDDDDDDDDDDDDDDDDDDDDDDDDDDDDDDDDDDDDDDDDDDDD",
"DDDDDDDDDDDDDDDDDDDDDDDDDDDDDDDDDDDDDDDDDDDDDDDDDDDDDDDDDDDDDDDD",
"DDDDDDDDDDDDDDDDDDDDDDDDDDDDDDDDDDDDDDDDDDDDDDDDDDDDDDDDDDDDDDDD",
"DDDDDDDDDDDDDDDDDDDDDDDDDDDDDDDDDDDDDDDDDDDDDDDDDDDDDDDDDDDDDDDD",
"DDDDDDDDDDDDDDDDDDDDDDDDDDDDDDDDDDDDDDDDDDDDDDDDDDDDDDDDDDDDDDDD",
"DDDDDDDDDDDDDDDDDDDDDDDDDDDDDDDDDDDDDDDDDDDDDDDDDDDDDDDDDDDDDDDD",
"DDDDDDDDDDDDDDDDDDDDDDDDDDDDDDDDDDDDDDDDDDDDDDDDDDDDDDDDDDDDDDDD",
"DDDDDDDDDDDDDDDDDDDDDDDDDDDDDDDDDDDDDDDDDDDDDDDDDDDDDDDDDDDDDDDD",
"DDDDDDDDDDDDDDDDDDDDDDDDDDDDDDDDDDDDDDDDDDDDDDDDDDDDDDDDDDDDDDDD",
"DDDDDDDDDDDDDDDDDDDDDDDDDDDDDDDDDDDDDDDDDDDVMADDDDDDDDDDDDDDDDDD",
"DDDDDDDDDDDDDDDDDDDDDDDDDDDDDDDDDDDDDDDDDDz.    o*:<7erafSDDDDDD",
"DDDDDDDDDDDDDDDDDDDDDDDDDDDDDDDDDDDDDDDDDDm o.           yDDDDDD",
"DDDDDDDDDDDDDDDDDDDDDDDDDDDDDDDDDDDDDDDDDDl :DDDCmlfireerMDDDDDD",
"DDDDDDDDDDDDDDDDDDDDDDDDDDDDDDDDDDDDDDDDDDl :DDDDDDDDDDDDDDDDDDD",
"DDDDDDDDDDDDDDDDDDDDDDDDDDDDDDDDC<fDDDDDDDl :DDDDDDDDDDDDDDDDDDD",
"DDDDZADDDDDDDDDDDDDDDDDDDDDDDDDDj eDDDDDDDl :DDDDDDDDDDDDDDDDDDD",
"DDDZ@=SDDDDDDDDDDDDDDDDDDDDDDDDDr rDDDDDDDd 2DDDDDDDDDDDDDDDDDDD",
"DDDS$ fDDDDDDDDDDDDDDDDDDDDDDDDD: gDDDDDDDa 5DDDDDDDDDDDDDDDDDDD",
"DDDDi :DDDDDDDDDDDDDDDDDDDDDDDDDX VDDDDDDDa 5DDDDDDDDDDDDDDDDDDD",
"DDDDZo mDDDDDDDDDDDDDDDDDDDDDDDz %DDDDDDDDa 5DDDDDDDDDDDDDDDDDDD",
"DDDDD2 pDDDDDDDDDDDDDDDDDDDDDDDq 9DDDDDDDDa 5DDDDDDDDDDDDDDDDDDD",
"DDDDDy 6DDDDDDDDDDDDDDDDDDDDDDD& lDDDDDDDDa 5DDDDDDDDDDDDDDDDDDD",
"DDDDDb +SDDDDDDDDDDDDDDDDDDDDDM OSDDDDDDDDa 5DDDDDDDDDDDDDDDDDDD",
"DDDDDD& hDDDDDDDDmyZDDDDDDDDDDp 2DDDDDDDDDa 5DDDDDDDDDDDDDDDDDDD",
"DDDDDDt 4DDDDDDDD6 9DDDDDDDDDD7 uDDDDDDDDDa 5DDDDDDDDDDDDDDDDDDD",
"DDDDDDn @DDDDDDDD2 XVDDDDDDDDD& xDDDDDDDDDa 5DDDDDDDDDDDDDDDDDDD",
"DDDDDDD@ cDDDDDDD-  pDDDDDDDDB oSDDDDDDDDDa 5DDDDDDDDDDDDDDDDDDD",
"DDDDDDD8 wDDDDDDD#  1DDDDDDDDa <DDDDDDDDDDa @::::>wzADDDDDDDDDDD",
"DDDDDDDk %DDDDDDD+  ODDDDDDDD5 uDDDDDDDDDDa         eDDDDDDDDDDD",
"DDDDDDDS+ nDDDDDZ X# xDDDDDDD$ vDDDDDDDDDDa ,lllll8:sDDDDDDDDDDD",
"DDDDDDDD4 rDDDDDM #9 7DDDDDDV oDDDDDDDDDDDa 5DDDDDDDDDDDDDDDDDDD",
"DDDDDDDDj @SDDDDM #n oZDDDDDh ;DDDDDDDDDDDa 5DDDDDDDDDDDDDDDDDDD",
"DDDDDDDDD= dDDDDz -D: pDDDDDy 9DDDDDDDDDDDa 5DDDDDDDDDDDDDDDDDDD",
"DDDDDDDDDi >DDDDh <Ds ;DDDDD3 pDDDDDDDDDDDa 5DDDDDDDDDDDDDDDDDDD",
"DDDDDDDDDC.XVDDDa 5DAO bDDDD* cDDDDDDDDDDDa 5DDDDDDDDDDDDDDDDDDD",
"DDDDDDDDDD< pDDDr wDD8 7DDDDo CDDDDDDDDDDDa 5DDDDDDDDDDDDDDDDDDD",
"DDDDDDDDDDp <DDD8 uDDm XBDDB ODDDDDDDDDDDDa 5DDDDDDDDDDDDDDDDDDD",
"DDDDDDDDDDCX nDD< gDDD1 9DDz -DDDDDDDDDDDDa 5DDDDDDDDDDDDDDDDDDD",
"DDDDDDDDDDD7 wDD+ NDDDv XCDs 3DDDDDDDDDDDDf 1DDDDDDDDDDDDDDDDDDD",
"DDDDDDDDDDDx oAN ODDDDD, yDw wDDDDDDDDDDDDv &DDDDDDDDDDDDDDDDDDD",
"DDDDDDDDDDDD& lM $DDDDDj #S2 dDDDDDDDDDDDDM #DDDDDDDDDDDDDDDDDDD",
"DDDDDDDDDDDD9 rz -DDDDDD* d@ nDDDDDDDDDDDDM #DDDDDDDDDDDDDDDDDDD",
"DDDDDDDDDDDDh =f 2DDDDDDi + @DDDDDDDDDDDDDZ XDDDDDDDDDDVmhrrrelD",
"DDDDDDDDDDDDAO , tDDDDDDAO  tDDDDDDDDDDDDDDO VDDDDnfw>O       <D",
"DDDDDDDDDDDDD,   bDDDDDDD8 &ADDDDDDDDDDDDDD# bBp3@     O$,0rerbD",
"DDDDDDDDDDDDDs  1DDDDDDDDZhADDDDDDDDDDDDDDD*      +1wgNDDDDDDDDD",
"DDDDDDDDDDDDDA@@MDDDDDDDDDDDDDDDDDDDDDDDDDDj=oO<inDDDDDDDDDDDDDD",
"DDDDDDDDDDDDDDDDDDDDDDDDDDDDDDDDDDDDDDDDDDDDDDDDDDDDDDDDDDDDDDDD",
"DDDDDDDDDDDDDDDDDDDDDDDDDDDDDDDDDDDDDDDDDDDDDDDDDDDDDDDDDDDDDDDD",
"DDDDDDDDDDDDDDDDDDDDDDDDDDDDDDDDDDDDDDDDDDDDDDDDDDDDDDDDDDDDDDDD",
"DDDDDDDDDDDDDDDDDDDDDDDDDDDDDDDDDDDDDDDDDDDDDDDDDDDDDDDDDDDDDDDD",
"DDDDDDDDDDDDDDDDDDDDDDDDDDDDDDDDDDDDDDDDDDDDDDDDDDDDDDDDDDDDDDDD",
"DDDDDDDDDDDDDDDDDDDDDDDDDDDDDDDDDDDDDDDDDDDDDDDDDDDDDDDDDDDDDDDD",
"DDDDDDDDDDDDDDDDDDDDDDDDDDDDDDDDDDDDDDDDDDDDDDDDDDDDDDDDDDDDDDDD",
"DDDDDDDDDDDDDDDDDDDDDDDDDDDDDDDDDDDDDDDDDDDDDDDDDDDDDDDDDDDDDDDD",
"DDDDDDDDDDDDDDDDDDDDDDDDDDDDDDDDDDDDDDDDDDDDDDDDDDDDDDDDDDDDDDDD",
"DDDDDDDDDDDDDDDDDDDDDDDDDDDDDDDDDDDDDDDDDDDDDDDDDDDDDDDDDDDDDDDD",
"DDDDDDDDDDDDDDDDDDDDDDDDDDDDDDDDDDDDDDDDDDDDDDDDDDDDDDDDDDDDDDDD",
"DDDDDDDDDDDDDDDDDDDDDDDDDDDDDDDDDDDDDDDDDDDDDDDDDDDDDDDDDDDDDDDD",
"DDDDDDDDDDDDDDDDDDDDDDDDDDDDDDDDDDDDDDDDDDDDDDDDDDDDDDDDDDDDDDDD",
"DDDDDDDDDDDDDDDDDDDDDDDDDDDDDDDDDDDDDDDDDDDDDDDDDDDDDDDDDDDDDDDD",
"DDDDDDDDDDDDDDDDDDDDDDDDDDDDDDDDDDDDDDDDDDDDDDDDDDDDDDDDDDDDDDDD",
"DDDDDDDDDDDDDDDDDDDDDDDDDDDDDDDDDDDDDDDDDDDDDDDDDDDDDDDDDDDDDDDD",
"DDDDDDDDDDDDDDDDDDDDDDDDDDDDDDDDDDDDDDDDDDDDDDDDDDDDDDDDDDDDDDDD"
};
